<svg width="18" height="22" viewBox="0 0 18 22" fill="none" xmlns="http://www.w3.org/2000/svg">
<path d="M14.939 11.6924C14.9607 10.0114 15.8635 8.42082 17.2956 7.54036C16.3921 6.25004 14.8788 5.43194 13.3044 5.38268C11.6252 5.20642 9.99725 6.38751 9.14154 6.38751C8.26927 6.38751 6.95177 5.40018 5.53304 5.42937C3.68378 5.48911 1.95982 6.5405 1.06012 8.15724C-0.873884 11.5057 0.568706 16.4267 2.42132 19.1333C3.34822 20.4587 4.4315 21.9391 5.84895 21.8866C7.23601 21.8291 7.75405 21.0021 9.42835 21.0021C11.0871 21.0021 11.5731 21.8866 13.0193 21.8532C14.5077 21.8291 15.4455 20.522 16.3399 19.1841C17.0058 18.2397 17.5183 17.196 17.8583 16.0916C16.1092 15.3518 14.9411 13.5916 14.939 11.6924Z" fill="white"/>
<path d="M12.2074 3.60268C13.0189 2.62847 13.4187 1.37629 13.3219 0.112061C12.0821 0.242281 10.9368 0.83484 10.1143 1.77167C9.31003 2.687 8.89147 3.91715 8.9706 5.13306C10.2109 5.14583 11.4302 4.56933 12.2074 3.60268Z" fill="white"/>
</svg>
