<svg width="77" height="17" viewBox="0 0 77 17" fill="none" xmlns="http://www.w3.org/2000/svg">
<g clip-path="url(#clip0_874_38382)">
<path d="M51.4213 16.9894V0.0107422H0V16.9894H51.4213Z" fill="black"/>
<path d="M7.79698 15.0552C5.50088 14.7598 4.08411 13.9023 4.309 11.349C4.70952 10.1867 5.44224 9.22401 6.53678 8.52864C8.02158 7.47128 10.2494 6.69956 11.3242 6.47082C10.8454 5.60389 11.0897 4.53653 11.5195 4.14595C11.7541 3.63157 13.3271 2.83098 14.529 2.4404C17.0204 1.60206 19.5021 1.55431 21.9741 1.82108L19.7659 4.20314C18.9259 4.21257 16.5612 3.94609 15.213 4.77471C14.8712 4.93654 14.2167 5.4229 14.4316 5.99447C14.8518 6.75675 16.3366 6.47082 16.9523 6.67069C17.4602 6.13743 16.1413 7.62368 16.0924 7.67114C14.8518 7.5948 12.9366 7.75692 11.4319 8.48117C10.2496 8.99555 9.30171 9.51022 8.85252 10.358C8.491 11.1203 8.88184 11.7585 9.72217 12.0541C10.8161 12.4638 12.1159 12.1399 13.2101 11.6918C14.7149 11.2155 15.5746 10.3294 16.6788 9.35754L21.9058 4.62202L24.4265 4.63146C21.8864 6.65124 19.395 9.09077 17.2256 11.5392C17.04 11.844 17.1473 12.0919 17.4798 12.0538C18.3591 11.9583 19.1992 11.3579 19.473 11.1486C19.629 11.0245 19.7563 10.9104 19.8932 10.7674C20.9094 9.8053 21.9154 8.87146 23.1759 8.24271C24.1722 7.81382 25.472 7.55677 26.4587 8.07087C26.6736 8.12805 26.8592 8.29017 26.9178 8.40454L31.3144 4.64089L33.6592 4.62202L27.5816 10.3297C27.2398 10.6442 26.9172 10.9776 26.7903 11.4156C26.722 12.445 27.6793 12.2637 28.4706 11.8634C29.5455 10.0438 31.2552 8.6716 32.9552 8.07115C33.7272 7.85213 34.7432 7.50902 35.31 7.8996C35.6222 8.02369 35.5639 8.41427 35.3783 8.80484C34.8702 10.3294 32.2419 11.6155 31.3722 11.8059C31.5091 12.9016 33.8343 12.0441 37.2346 9.1288C37.127 8.79541 37.0196 8.33792 37.2346 7.83326C37.5178 7.26141 37.8207 7.08042 38.4364 6.75646C38.9542 6.59463 39.5304 6.62294 39.8725 6.9852C39.9995 7.5948 39.6283 7.88073 39.1788 8.55723C39.1299 8.65244 39.1788 8.80484 39.2958 8.80484C39.5304 8.80484 39.7356 8.79541 40.0191 8.7285C40.7516 8.46173 41.2793 8.0234 41.9537 7.78523C42.5205 8.12805 42.5495 8.10918 42.6278 8.29017C42.5791 8.40454 42.5985 8.53779 42.3836 8.65244C40.6443 10.215 40.0485 10.8627 40.0194 11.2915C39.7456 11.9014 40.4296 12.2254 41.2796 11.7013C42.5891 10.7866 44.1425 9.35754 45.2268 8.00453L45.5983 7.46156C45.8721 7.76636 45.8522 7.83326 46.5072 8.36652C46.3509 9.35754 46.5852 10.3197 46.6342 11.2915C46.5852 12.73 46.175 13.2636 45.3057 14.15C44.0648 14.9408 42.1692 14.5691 41.3389 13.3685C40.4988 14.1308 38.2514 15.5218 37.0692 14.15C36.6487 13.3874 36.825 12.473 37.2352 11.8059L38.8079 9.67177H37.8213C37.4111 10.034 36.8637 10.5481 36.5511 10.7674C34.9781 11.9583 33.0532 13.5781 31.1286 14.3878C29.077 15.1121 28.305 14.3404 28.3147 13.2447C26.722 14.0928 24.3772 15.541 23.4688 13.9021C21.3874 15.0929 19.58 15.5982 18.5251 13.4163C17.7628 13.969 14.4217 16.2935 13.679 13.826C11.7731 14.5694 10.0928 15.0552 7.79698 15.0552V15.0552Z" fill="white"/>
<path d="M24.66 10.71C24.0836 11.1961 23.3705 11.7868 22.8527 12.0059C22.6181 12.1105 22.2176 12.2535 22.1103 12.0347C21.9831 11.844 22.0027 11.4343 22.2373 11.1006C22.5305 10.6626 23.5661 9.64296 24.4551 9.23322C24.9339 9.06167 25.2072 9.09055 25.4713 9.20463C25.7546 9.73846 24.7873 10.5862 24.66 10.71ZM43.7516 12.0916C43.439 12.0059 43.0775 11.987 42.9505 11.7394L45.1976 9.4714L45.2073 10.3672C45.0804 11.2153 44.7578 12.1394 43.7516 12.0916V12.0916ZM31.1868 10.8722C31.1085 10.8913 31.3431 10.6528 31.3431 10.634C31.9098 10.1482 32.6326 9.47169 33.6782 9.09083C33.7075 9.1097 34.1667 8.9859 33.8151 9.41479C33.141 9.98635 32.6915 10.3864 31.8609 10.7298C31.5973 10.815 31.4117 10.8913 31.1868 10.8722V10.8722Z" fill="black"/>
<path d="M77.0001 16.9985V0.000976562H52.1641V16.9985H77.0001Z" fill="black"/>
<path d="M71.6952 14.5782V9.88097H74.7137V10.7193H72.5352V11.7198H74.5381V12.549H72.5352V13.7493H74.792V14.5782H71.6952V14.5782ZM69.0862 14.5782V10.7193H67.8454V9.88097H71.1964V10.7193H69.9362V14.5782H69.0862V14.5782ZM64.1718 14.5782L65.6276 9.88097H66.6142L68.0896 14.5782H67.142L66.8781 13.616H65.3734L65.0805 14.5782H64.1718V14.5782ZM62.3152 14.5782V10.7193H61.0744V9.88097H64.4161V10.7193H63.1752V14.5782H62.3152V14.5782ZM57.4204 13.1397H58.2411C58.2411 13.3207 58.2804 13.4539 58.3684 13.5777C58.4367 13.6918 58.5343 13.7684 58.6613 13.8348C58.7689 13.8731 58.9155 13.9114 59.0521 13.9114C59.6579 13.9114 59.9414 13.7112 59.9611 13.3207C59.9611 13.1871 59.9315 13.0825 59.8634 13.0062C59.8048 12.9395 59.7168 12.9012 59.6582 12.8632C59.5702 12.8252 59.414 12.7868 59.199 12.7297C59.0331 12.663 58.9158 12.625 58.8085 12.625C58.5346 12.5678 58.2904 12.4726 58.1051 12.3963C57.9214 12.2905 57.7697 12.1393 57.6653 11.9579C57.538 11.7675 57.47 11.5102 57.47 11.1862C57.4797 10.91 57.558 10.6527 57.6846 10.4431C57.7904 10.2258 57.9699 10.0507 58.1928 9.94759C58.437 9.82379 58.7006 9.7666 59.0328 9.7666C59.326 9.7666 59.5799 9.81435 59.7849 9.90956C59.9901 9.98591 60.1663 10.1191 60.2833 10.2621C60.4103 10.4145 60.5082 10.5766 60.5569 10.7573C60.6155 10.9289 60.6548 11.1099 60.6645 11.2814H59.8435C59.8045 10.8145 59.5113 10.5763 58.9739 10.5763C58.7689 10.5858 58.6223 10.6332 58.4757 10.719C58.3487 10.7954 58.2804 10.9286 58.2608 11.129C58.2608 11.3575 58.3781 11.5291 58.5836 11.596C58.7885 11.6626 58.9938 11.7198 59.1697 11.777C59.365 11.8153 59.4922 11.8533 59.5799 11.891C59.8731 11.9865 60.1174 12.0532 60.2833 12.1581C60.4396 12.2533 60.5762 12.3963 60.6645 12.5487C60.7328 12.7105 60.7815 12.9204 60.7815 13.1869C60.7815 13.5014 60.7132 13.7681 60.5959 13.9969C60.4686 14.1873 60.322 14.3491 60.1367 14.4635C59.9608 14.5685 59.7849 14.6256 59.6189 14.6354C59.4626 14.6734 59.3257 14.6923 59.1984 14.6923C58.0362 14.6925 57.4398 14.1876 57.4204 13.1397V13.1397ZM53.8152 14.5782V9.88097H56.8343V10.7193H54.6552V11.7198H56.6681V12.549H54.6552V13.7493H56.9223V14.5782H53.8152V14.5782Z" fill="white"/>
<path d="M66.1063 10.958H66.1256L66.6434 12.8257H65.5981L66.1063 10.958Z" fill="black"/>
<path d="M66.5362 8.68992V4.4502H67.4448V7.92792H69.6139V8.68992H66.5362ZM58.0945 8.68992V4.4502H61.2992V5.19332H58.9835V6.09828H61.1233V6.85112H58.9835V7.94679H61.4068V8.68992H58.0945V8.68992ZM53.7075 8.68992V4.4502H55.906C56.2185 4.4502 56.4827 4.49795 56.678 4.62175C56.8829 4.73612 57.0199 4.87909 57.1371 5.05064C57.2251 5.2505 57.2738 5.42235 57.2738 5.64108C57.2738 5.80291 57.2544 5.94588 57.2055 6.07941C57.1471 6.22237 57.0785 6.34617 56.9709 6.44167C56.8829 6.53689 56.7363 6.62267 56.5994 6.67985C56.8246 6.73675 56.9709 6.85141 57.0392 7.00381C57.1175 7.16564 57.1468 7.36579 57.1468 7.61369V7.97567C57.1468 8.17582 57.1662 8.31878 57.1955 8.40456C57.2251 8.49977 57.2738 8.5664 57.3421 8.59499V8.6902H56.3458C56.3065 8.60442 56.2968 8.49977 56.2675 8.39512C56.2479 8.27103 56.2479 8.14751 56.2479 8.02342C56.2382 7.89933 56.2382 7.74693 56.2382 7.64228C56.2382 7.48988 56.2188 7.38523 56.1895 7.30889C56.1699 7.21368 56.1112 7.16593 56.0133 7.10874C55.906 7.06128 55.7594 7.04212 55.5544 7.04212H54.5968V8.69049H53.7075V8.68992V8.68992Z" fill="white"/>
<path d="M54.5967 6.33649V5.19336H55.7496C55.9645 5.19336 56.1307 5.25026 56.2187 5.35519C56.326 5.46928 56.3653 5.58394 56.3653 5.72661C56.3653 5.92676 56.326 6.06029 56.2187 6.17437C56.1307 6.27902 55.9648 6.33621 55.7302 6.33621H54.5967V6.33649V6.33649Z" fill="black"/>
<path d="M61.9636 8.67109L63.5074 4.45996H64.5623L66.1063 8.67109H65.1097L64.8168 7.81359H63.2338L62.9113 8.67109H61.9636Z" fill="white"/>
<path d="M64.0152 5.41309L64.5726 7.09005H63.478L64.0152 5.41309Z" fill="black"/>
</g>
<defs>
<clipPath id="clip0_874_38382">
<rect width="77" height="17" fill="white"/>
</clipPath>
</defs>
</svg>
