<svg width="161" height="41" viewBox="0 0 161 41" fill="none" xmlns="http://www.w3.org/2000/svg">
<path d="M16.9685 0C7.60213 0 0 7.59473 0 16.9759C0 21.659 1.89992 25.903 4.97186 28.9774L16.9685 40.7421L28.97 28.9749C32.042 25.9055 33.9419 21.6615 33.9369 16.9734C33.9369 7.6046 26.3422 0 16.9685 0ZM22.9076 16.9759V23.7662H18.6661V18.6735H15.2733V23.7662H11.0294V16.9759H8.48547L16.9685 8.48793L25.4539 16.9759H22.9076Z" fill="#FFBF00"/>
<path d="M60.3799 28.4566C60.1553 28.5159 59.8074 28.5751 59.3337 28.6343C58.8599 28.6935 58.3886 28.7231 57.9223 28.7231C57.4535 28.7231 57.0439 28.6861 56.6886 28.6146C56.3382 28.5504 56.0421 28.427 55.8003 28.2494C55.556 28.0668 55.371 27.8127 55.2476 27.4894C55.1292 27.1613 55.07 26.7344 55.07 26.2064V21.4788H49.2468V28.4566C49.0223 28.5159 48.6695 28.5751 48.1908 28.6343C47.717 28.6935 47.2482 28.7231 46.7893 28.7231C46.3205 28.7231 45.9109 28.6861 45.5556 28.6146C45.2003 28.5504 44.8992 28.427 44.6574 28.2494C44.4206 28.0668 44.238 27.8127 44.1146 27.4894C43.9962 27.1613 43.937 26.7344 43.937 26.2064V10.1879C44.159 10.1484 44.5119 10.0941 44.993 10.0201C45.4791 9.94851 45.9454 9.9115 46.3945 9.9115C46.8608 9.9115 47.268 9.94851 47.6183 10.0201C47.9737 10.0941 48.2722 10.2224 48.5165 10.405C48.7583 10.5826 48.9409 10.8368 49.0593 11.1649C49.1827 11.4882 49.2468 11.9126 49.2468 12.4381V17.2842H55.07V10.1879C55.292 10.1484 55.6449 10.0941 56.126 10.0201C56.6121 9.94851 57.0784 9.9115 57.5275 9.9115C57.9939 9.9115 58.401 9.94851 58.7514 10.0201C59.1067 10.0941 59.4052 10.2224 59.6495 10.405C59.8913 10.5826 60.0739 10.8368 60.1923 11.1649C60.3157 11.4882 60.3799 11.9126 60.3799 12.4381V28.4566Z" fill="white"/>
<path d="M79.1905 21.2024C79.1905 22.4608 78.9955 23.5785 78.6082 24.5581C78.2257 25.5401 77.6853 26.3642 76.9895 27.0354C76.2913 27.7016 75.4548 28.2049 74.4826 28.5454C73.5154 28.886 72.4347 29.0587 71.2454 29.0587C70.0462 29.0587 68.9605 28.8761 67.9884 28.5158C67.0211 28.1556 66.1872 27.635 65.4913 26.9564C64.7931 26.2804 64.2502 25.4538 63.8628 24.4791C63.4804 23.507 63.2904 22.4139 63.2904 21.2024C63.2904 20.0131 63.4804 18.9324 63.8628 17.9651C64.2502 16.993 64.7931 16.1664 65.4913 15.4878C66.1872 14.8118 67.0211 14.2911 67.9884 13.9284C68.9605 13.5608 70.0462 13.3757 71.2454 13.3757C72.4347 13.3757 73.5154 13.5633 74.4826 13.9383C75.4548 14.3134 76.2913 14.8414 76.9895 15.5175C77.6853 16.196 78.2257 17.0226 78.6082 17.9947C78.9955 18.962 79.1905 20.0328 79.1905 21.2024ZM68.5707 21.2024C68.5707 22.441 68.8076 23.3885 69.2813 24.0449C69.76 24.6963 70.4262 25.022 71.275 25.022C72.1238 25.022 72.7752 24.6913 73.2292 24.0251C73.6832 23.354 73.9102 22.4139 73.9102 21.2024C73.9102 19.9934 73.6758 19.0582 73.2094 18.3994C72.748 17.7431 72.0942 17.4124 71.2454 17.4124C70.3966 17.4124 69.7378 17.7431 69.2714 18.3994C68.8026 19.0582 68.5707 19.9934 68.5707 21.2024Z" fill="white"/>
<path d="M81.7123 14.047C81.9146 13.9828 82.2354 13.9187 82.6696 13.8595C83.1039 13.8002 83.5505 13.7706 84.0119 13.7706C84.4585 13.7706 84.8607 13.8002 85.216 13.8595C85.5713 13.9187 85.8674 14.042 86.1043 14.2246C86.3461 14.4097 86.5336 14.6589 86.6669 14.9747C86.7976 15.2856 86.8643 15.6928 86.8643 16.1986V22.7224C86.8643 23.5515 87.0641 24.1437 87.4663 24.499C87.8734 24.8494 88.4631 25.0221 89.233 25.0221C89.6993 25.0221 90.0768 24.9826 90.368 24.9036C90.6641 24.8247 90.8936 24.7433 91.0589 24.6569V14.047C91.2563 13.9828 91.5721 13.9187 92.0064 13.8595C92.4456 13.8002 92.8971 13.7706 93.3585 13.7706C93.8051 13.7706 94.2024 13.8002 94.5527 13.8595C94.9081 13.9187 95.2066 14.042 95.4509 14.2246C95.6927 14.4097 95.8802 14.6589 96.0135 14.9747C96.1442 15.2856 96.2109 15.6928 96.2109 16.1986V25.4169C96.2109 26.431 95.7865 27.1909 94.9377 27.6968C94.232 28.1384 93.3881 28.474 92.4012 28.7035C91.4191 28.9403 90.3532 29.0588 89.2034 29.0588C88.1103 29.0588 87.1036 28.9354 86.1833 28.6936C85.2604 28.4518 84.4684 28.0792 83.8047 27.5783C83.1385 27.0725 82.6228 26.4211 82.2551 25.6241C81.8924 24.8222 81.7123 23.855 81.7123 22.7224V14.047Z" fill="white"/>
<path d="M111.807 24.1732C111.807 25.7129 111.23 26.917 110.08 27.7855C108.928 28.6541 107.23 29.0883 104.987 29.0883C104.131 29.0883 103.339 29.0242 102.608 28.9008C101.883 28.7824 101.261 28.5973 100.743 28.3481C100.23 28.0989 99.8252 27.7831 99.5291 27.4006C99.238 27.0132 99.0949 26.5568 99.0949 26.0287C99.0949 25.5427 99.196 25.1355 99.4008 24.8049C99.6032 24.4693 99.8474 24.1905 100.131 23.966C100.716 24.2892 101.387 24.5779 102.145 24.8345C102.9 25.0862 103.776 25.2096 104.77 25.2096C105.394 25.2096 105.875 25.1183 106.211 24.9332C106.546 24.7506 106.714 24.5063 106.714 24.2029C106.714 23.9216 106.591 23.6995 106.349 23.5416C106.105 23.3787 105.7 23.2455 105.135 23.1468L104.227 22.9593C102.463 22.6188 101.15 22.0784 100.289 21.3406C99.4329 20.6053 99.006 19.5493 99.006 18.1725C99.006 17.4224 99.1664 16.7463 99.4897 16.1393C99.8104 15.5274 100.264 15.0216 100.852 14.6194C101.444 14.2123 102.147 13.8989 102.964 13.6818C103.785 13.4597 104.691 13.3462 105.678 13.3462C106.428 13.3462 107.131 13.4029 107.79 13.514C108.446 13.6275 109.016 13.7953 109.498 14.0173C109.984 14.2345 110.369 14.5207 110.652 14.876C110.934 15.2313 111.077 15.6532 111.077 16.1393C111.077 16.6007 110.99 16.998 110.82 17.3335C110.647 17.6691 110.43 17.9504 110.169 18.1725C110.011 18.0688 109.766 17.9603 109.438 17.8468C109.115 17.7357 108.76 17.637 108.372 17.5507C107.99 17.4594 107.603 17.3829 107.208 17.3237C106.818 17.2595 106.46 17.225 106.132 17.225C105.466 17.225 104.95 17.3015 104.582 17.452C104.22 17.605 104.04 17.8443 104.04 18.1725C104.04 18.3896 104.141 18.5722 104.346 18.7153C104.548 18.8535 104.933 18.9867 105.5 19.1101L106.438 19.3174C108.377 19.7664 109.757 20.3808 110.573 21.163C111.395 21.9402 111.807 22.9445 111.807 24.1732Z" fill="white"/>
<path d="M114.181 9.7339C114.181 8.96407 114.438 8.3176 114.951 7.78958C115.464 7.26401 116.145 7 116.994 7C117.848 7 118.534 7.26401 119.047 7.78958C119.56 8.3176 119.817 8.96407 119.817 9.7339C119.817 10.5037 119.56 11.1527 119.047 11.6782C118.534 12.2063 117.848 12.4678 116.994 12.4678C116.145 12.4678 115.464 12.2063 114.951 11.6782C114.438 11.1527 114.181 10.5037 114.181 9.7339ZM119.58 28.5455C119.355 28.585 119.027 28.6393 118.593 28.7133C118.159 28.7849 117.717 28.8219 117.27 28.8219C116.821 28.8219 116.421 28.7873 116.066 28.7232C115.716 28.664 115.42 28.5455 115.178 28.3679C114.934 28.1853 114.746 27.9385 114.615 27.6277C114.482 27.3118 114.418 26.9022 114.418 26.3939V14.047C114.64 14.0025 114.971 13.9458 115.405 13.8792C115.839 13.8076 116.278 13.7706 116.727 13.7706C117.167 13.7706 117.566 13.8002 117.922 13.8594C118.277 13.9187 118.576 14.042 118.82 14.2246C119.062 14.4097 119.249 14.6589 119.382 14.9747C119.513 15.2856 119.58 15.6927 119.58 16.1986V28.5455Z" fill="white"/>
<path d="M137.266 25.9004C137.167 26.8553 136.886 27.5857 136.427 28.0915C135.973 28.5973 135.311 28.8515 134.443 28.8515C133.796 28.8515 133.221 28.6935 132.716 28.3777C132.207 28.0619 131.662 27.5339 131.077 26.7887L128.077 23.0185V28.5455C127.852 28.585 127.524 28.6393 127.09 28.7133C126.656 28.7848 126.214 28.8219 125.767 28.8219C125.318 28.8219 124.919 28.7873 124.563 28.7232C124.213 28.6639 123.917 28.5455 123.675 28.3678C123.431 28.1853 123.243 27.9385 123.112 27.6276C122.979 27.3118 122.915 26.9022 122.915 26.3939V8.82586C123.137 8.76664 123.468 8.70249 123.902 8.62846C124.336 8.55691 124.775 8.5199 125.225 8.5199C125.664 8.5199 126.063 8.55444 126.419 8.61859C126.774 8.67781 127.073 8.80118 127.317 8.98377C127.559 9.16143 127.746 9.40817 127.879 9.724C128.01 10.0349 128.077 10.442 128.077 10.9478V18.962L133.288 13.6225C134.339 13.6225 135.186 13.8569 135.825 14.3233C136.461 14.7847 136.782 15.3695 136.782 16.0801C136.782 16.3836 136.728 16.6599 136.624 16.9091C136.525 17.1608 136.37 17.4174 136.16 17.679C135.948 17.943 135.677 18.2218 135.341 18.5179C135.005 18.814 134.613 19.1545 134.166 19.5345L132.41 21.0544L137.266 25.9004Z" fill="white"/>
<path d="M154.954 21.2024C154.954 22.4608 154.759 23.5785 154.372 24.5581C153.989 25.5401 153.449 26.3642 152.753 27.0354C152.055 27.7016 151.218 28.2049 150.246 28.5454C149.279 28.886 148.198 29.0587 147.009 29.0587C145.81 29.0587 144.724 28.8761 143.752 28.5158C142.785 28.1556 141.951 27.635 141.255 26.9564C140.557 26.2804 140.014 25.4538 139.627 24.4791C139.244 23.507 139.054 22.4139 139.054 21.2024C139.054 20.0131 139.244 18.9324 139.627 17.9651C140.014 16.993 140.557 16.1664 141.255 15.4878C141.951 14.8118 142.785 14.2911 143.752 13.9284C144.724 13.5608 145.81 13.3757 147.009 13.3757C148.198 13.3757 149.279 13.5633 150.246 13.9383C151.218 14.3134 152.055 14.8414 152.753 15.5175C153.449 16.196 153.989 17.0226 154.372 17.9947C154.759 18.962 154.954 20.0328 154.954 21.2024ZM144.334 21.2024C144.334 22.441 144.571 23.3885 145.045 24.0449C145.524 24.6963 146.19 25.022 147.039 25.022C147.887 25.022 148.539 24.6913 148.993 24.0251C149.447 23.354 149.674 22.4139 149.674 21.2024C149.674 19.9934 149.439 19.0582 148.973 18.3994C148.512 17.7431 147.858 17.4124 147.009 17.4124C146.16 17.4124 145.501 17.7431 145.035 18.3994C144.566 19.0582 144.334 19.9934 144.334 21.2024Z" fill="white"/>
</svg>
