<svg width="118" height="87" viewBox="0 0 118 87" fill="none" xmlns="http://www.w3.org/2000/svg">
<g clip-path="url(#clip0_1270_61031)">
<path d="M118 49.6395L113.779 45.2545H85.2906L87.225 43.5005L85.2906 41.7464H113.779L118 37.3614H81.07L77.9046 34.2041H106.218L110.438 29.9945H73.5082L70.3428 26.6619H98.6557L102.876 22.4522H66.1222L62.7809 19.295H91.2697L95.4903 14.9099H58.5604L55.3949 11.7556H83.7079L87.9285 7.54302H50.9985L47.8331 4.21038H76.1461L80.3666 0.000732422H43.6125L0 43.5005L43.6125 87.0002H80.3666L76.1461 82.7905H47.8331L50.9985 79.4579H87.9285L83.7079 75.2482H55.3949L58.5604 72.091H95.4903L91.2697 67.706H62.7809L66.1222 64.5487H102.876L98.6557 60.3391H70.3428L73.5082 57.0064H110.438L106.218 52.7968H77.9046L81.07 49.6395H118Z" fill="black"/>
<path d="M33.4129 31.748H32.3578V34.3762C30.8718 33.2185 30.1303 31.8211 25.4994 31.748C20.9007 31.8211 14.7164 34.3703 14.7721 43.3246C14.7164 52.7057 21.8034 55.5823 26.2028 55.4273C30.5406 55.4186 32.4369 53.5301 33.7647 51.9193L33.0612 51.2206C31.7775 52.0508 29.9661 54.106 26.2028 54.027C22.3808 54.106 17.3513 50.4079 17.41 43.3275C17.3513 36.098 22.2988 32.9759 25.4994 32.9788C28.7322 32.9759 31.5342 33.7155 32.3578 37.7146H33.4129V31.748ZM64.012 41.9214C66.2366 41.7723 68.0978 39.4862 68.0567 37.1855C68.0627 35.772 67.5141 34.4123 66.5283 33.3968C65.5425 32.3813 64.1976 31.7906 62.781 31.751H52.5813V32.9788H55.0433V53.5008H53.2848C51.6464 53.533 50.9898 52.9571 50.4711 51.9222L46.0746 44.0291C48.7008 43.2573 50.6528 40.8543 50.6498 38.0654C50.658 36.418 50.0172 34.8332 48.8655 33.6522C47.7138 32.4712 46.1433 31.7885 44.4919 31.751H35.5232V32.9788H37.9852V53.5008H35.5232V54.7286H42.7334V53.4979H40.2714V44.2016H43.7885L48.3608 52.6209C49.2576 54.1849 50.0812 54.6789 52.2296 54.7257C54.5304 54.6789 55.0433 54.7257 55.0433 54.7257H62.4293C66.052 54.6614 69.0152 51.7059 68.939 48.0634C69.0152 45.3271 67.7197 42.9621 64.012 41.9214Z" fill="white"/>
<path d="M43.6123 42.9739H40.271V32.9759H43.6123C46.3117 32.9584 48.3194 35.2123 48.3604 38.0626C48.3194 40.7667 46.3117 43.0177 43.6123 42.9739V42.9739ZM57.3291 32.9759H61.7255C64.0117 32.9642 65.4215 34.8644 65.4185 37.1827C65.4215 39.5506 64.0117 41.4508 61.7255 41.3923H57.3291V32.9759ZM61.3738 53.498H57.3291V42.623H61.3738C64.3312 42.6084 66.3037 45.0261 66.2978 48.0605C66.3037 51.095 64.3399 53.5301 61.3738 53.498Z" fill="black"/>
</g>
<defs>
<clipPath id="clip0_1270_61031">
<rect width="118" height="87" fill="white"/>
</clipPath>
</defs>
</svg>
