<svg width="113" height="29" viewBox="0 0 113 29" fill="none" xmlns="http://www.w3.org/2000/svg">
<path d="M11.9129 0C5.33718 0 0 5.40589 0 12.0833C0 15.4168 1.33386 18.4376 3.49056 20.626L11.9129 29L20.3388 20.6242C22.4955 18.4394 23.8293 15.4185 23.8259 12.0816C23.8259 5.41291 18.4939 0 11.9129 0ZM16.0826 12.0833V16.9167H13.1048V13.2917H10.7229V16.9167H7.74332V12.0833H5.95733L11.9129 6.04167L17.8703 12.0833H16.0826Z" fill="#FFBF00"/>
<path d="M42.3904 20.255C42.2328 20.2972 41.9885 20.3393 41.6559 20.3815C41.3233 20.4236 40.9924 20.4447 40.665 20.4447C40.3359 20.4447 40.0483 20.4184 39.7989 20.3674C39.5529 20.3218 39.345 20.234 39.1753 20.1075C39.0038 19.9775 38.8739 19.7966 38.7872 19.5666C38.7041 19.333 38.6625 19.0291 38.6625 18.6533V15.2882H34.5743V20.255C34.4167 20.2972 34.169 20.3393 33.8329 20.3815C33.5003 20.4236 33.1712 20.4447 32.849 20.4447C32.5198 20.4447 32.2323 20.4184 31.9828 20.3674C31.7334 20.3218 31.522 20.234 31.3523 20.1075C31.186 19.9775 31.0578 19.7966 30.9712 19.5666C30.888 19.333 30.8464 19.0291 30.8464 18.6533V7.25139C31.0023 7.22329 31.2501 7.18465 31.5879 7.13196C31.9291 7.08103 32.2565 7.05469 32.5718 7.05469C32.8992 7.05469 33.185 7.08103 33.431 7.13196C33.6805 7.18465 33.8901 7.27598 34.0616 7.40595C34.2313 7.5324 34.3595 7.7133 34.4427 7.94689C34.5293 8.17696 34.5743 8.47905 34.5743 8.85314V12.3025H38.6625V7.25139C38.8184 7.22329 39.0661 7.18465 39.4039 7.13196C39.7452 7.08103 40.0726 7.05469 40.3879 7.05469C40.7153 7.05469 41.0011 7.08103 41.2471 7.13196C41.4965 7.18465 41.7061 7.27598 41.8776 7.40595C42.0474 7.5324 42.1756 7.7133 42.2587 7.94689C42.3454 8.17696 42.3904 8.47905 42.3904 8.85314V20.255Z" fill="white"/>
<path d="M55.5967 15.0915C55.5967 15.9872 55.4598 16.7828 55.1879 17.4801C54.9194 18.1791 54.54 18.7657 54.0515 19.2434C53.5613 19.7176 52.974 20.0759 52.2915 20.3182C51.6124 20.5606 50.8537 20.6835 50.0187 20.6835C49.1768 20.6835 48.4146 20.5536 47.7321 20.2972C47.0531 20.0407 46.4675 19.6702 45.979 19.1872C45.4888 18.7059 45.1077 18.1176 44.8357 17.4239C44.5672 16.7319 44.4338 15.9538 44.4338 15.0915C44.4338 14.245 44.5672 13.4757 44.8357 12.7872C45.1077 12.0952 45.4888 11.5069 45.979 11.0239C46.4675 10.5427 47.0531 10.1721 47.7321 9.91392C48.4146 9.65223 49.1768 9.52051 50.0187 9.52051C50.8537 9.52051 51.6124 9.65399 52.2915 9.92094C52.974 10.1879 53.5613 10.5637 54.0515 11.045C54.54 11.528 54.9194 12.1163 55.1879 12.8083C55.4598 13.4968 55.5967 14.259 55.5967 15.0915ZM48.1409 15.0915C48.1409 15.9731 48.3072 16.6476 48.6398 17.1147C48.9759 17.5784 49.4436 17.8102 50.0395 17.8102C50.6354 17.8102 51.0927 17.5749 51.4115 17.1007C51.7302 16.623 51.8896 15.9538 51.8896 15.0915C51.8896 14.2309 51.725 13.5653 51.3976 13.0963C51.0737 12.6292 50.6146 12.3938 50.0187 12.3938C49.4228 12.3938 48.9603 12.6292 48.6329 13.0963C48.3038 13.5653 48.1409 14.2309 48.1409 15.0915Z" fill="white"/>
<path d="M57.3672 9.99846C57.5092 9.9528 57.7344 9.90714 58.0393 9.86498C58.3442 9.82283 58.6577 9.80176 58.9817 9.80176C59.2952 9.80176 59.5776 9.82283 59.827 9.86498C60.0765 9.90714 60.2844 9.99495 60.4507 10.1249C60.6204 10.2566 60.7521 10.434 60.8456 10.6588C60.9374 10.8801 60.9842 11.1699 60.9842 11.53V16.1736C60.9842 16.7637 61.1245 17.1852 61.4069 17.4381C61.6927 17.6875 62.1067 17.8105 62.6472 17.8105C62.9746 17.8105 63.2396 17.7824 63.4441 17.7262C63.6519 17.67 63.813 17.612 63.9291 17.5505V9.99846C64.0677 9.9528 64.2894 9.90714 64.5943 9.86498C64.9026 9.82283 65.2196 9.80176 65.5436 9.80176C65.8571 9.80176 66.136 9.82283 66.382 9.86498C66.6315 9.90714 66.8411 9.99495 67.0126 10.1249C67.1823 10.2566 67.314 10.434 67.4075 10.6588C67.4993 10.8801 67.5461 11.1699 67.5461 11.53V18.0915C67.5461 18.8133 67.2482 19.3543 66.6522 19.7143C66.1568 20.0287 65.5644 20.2675 64.8715 20.4309C64.182 20.5995 63.4337 20.6838 62.6264 20.6838C61.859 20.6838 61.1522 20.596 60.5061 20.4239C59.8582 20.2517 59.3022 19.9865 58.8362 19.63C58.3684 19.27 58.0064 18.8063 57.7483 18.239C57.4936 17.6682 57.3672 16.9798 57.3672 16.1736V9.99846Z" fill="white"/>
<path d="M78.4956 17.2066C78.4956 18.3026 78.0903 19.1596 77.283 19.7779C76.4741 20.3961 75.2823 20.7052 73.7076 20.7052C73.1065 20.7052 72.5504 20.6595 72.0377 20.5717C71.5284 20.4874 71.0919 20.3557 70.7281 20.1783C70.3678 20.0009 70.0837 19.7761 69.8758 19.5039C69.6714 19.2281 69.5709 18.9032 69.5709 18.5274C69.5709 18.1814 69.6419 17.8916 69.7857 17.6563C69.9278 17.4174 70.0993 17.2189 70.2985 17.0591C70.709 17.2892 71.1802 17.4947 71.712 17.6773C72.2421 17.8565 72.8571 17.9443 73.5552 17.9443C73.9934 17.9443 74.3312 17.8793 74.5668 17.7476C74.8024 17.6176 74.9202 17.4437 74.9202 17.2277C74.9202 17.0275 74.8336 16.8694 74.6638 16.757C74.4923 16.6411 74.2082 16.5463 73.8115 16.476L73.1741 16.3425C71.9355 16.1002 71.0139 15.7155 70.4093 15.1904C69.8082 14.667 69.5085 13.9153 69.5085 12.9353C69.5085 12.4014 69.6211 11.9202 69.8481 11.4881C70.0733 11.0526 70.392 10.6925 70.8043 10.4063C71.22 10.1165 71.7137 9.89341 72.2871 9.73886C72.864 9.58079 73.4997 9.5 74.1926 9.5C74.7193 9.5 75.213 9.54039 75.6755 9.61943C76.1363 9.70022 76.5364 9.81965 76.8742 9.97771C77.2155 10.1323 77.4857 10.336 77.6849 10.5889C77.8824 10.8418 77.9829 11.1421 77.9829 11.4881C77.9829 11.8166 77.9223 12.0993 77.8027 12.3382C77.6815 12.577 77.529 12.7773 77.3454 12.9353C77.2345 12.8616 77.063 12.7843 76.8327 12.7035C76.6057 12.6245 76.3563 12.5542 76.0843 12.4927C75.8158 12.4277 75.5438 12.3733 75.2667 12.3312C74.993 12.2855 74.7418 12.2609 74.5114 12.2609C74.0437 12.2609 73.6816 12.3153 73.4235 12.4225C73.1689 12.5314 73.0424 12.7017 73.0424 12.9353C73.0424 13.0899 73.1134 13.2198 73.2572 13.3217C73.3993 13.4201 73.6695 13.5149 74.0679 13.6027L74.7262 13.7502C76.0878 14.0699 77.0561 14.5072 77.6295 15.064C78.2064 15.6172 78.4956 16.332 78.4956 17.2066Z" fill="white"/>
<path d="M80.1621 6.9284C80.1621 6.38044 80.3423 5.92029 80.7026 5.54444C81.0629 5.17035 81.541 4.98242 82.1369 4.98242C82.7363 4.98242 83.2179 5.17035 83.5782 5.54444C83.9385 5.92029 84.1187 6.38044 84.1187 6.9284C84.1187 7.47637 83.9385 7.93827 83.5782 8.31236C83.2179 8.68821 82.7363 8.87438 82.1369 8.87438C81.541 8.87438 81.0629 8.68821 80.7026 8.31236C80.3423 7.93827 80.1621 7.47637 80.1621 6.9284ZM83.9524 20.3184C83.7947 20.3465 83.5643 20.3852 83.2594 20.4378C82.9546 20.4888 82.6445 20.5151 82.3309 20.5151C82.0157 20.5151 81.735 20.4905 81.4856 20.4449C81.2396 20.4027 81.0317 20.3184 80.862 20.192C80.6905 20.062 80.5588 19.8864 80.467 19.6651C80.3734 19.4403 80.3284 19.1487 80.3284 18.7869V9.99841C80.4843 9.9668 80.7164 9.9264 81.0213 9.87898C81.3262 9.82805 81.6346 9.8017 81.9498 9.8017C82.2582 9.8017 82.5388 9.82278 82.7883 9.86493C83.0377 9.90708 83.2473 9.9949 83.4188 10.1249C83.5886 10.2566 83.7202 10.434 83.8138 10.6588C83.9056 10.8801 83.9524 11.1699 83.9524 11.5299V20.3184Z" fill="white"/>
<path d="M96.3692 18.4358C96.2999 19.1155 96.1024 19.6354 95.7802 19.9954C95.4615 20.3555 94.9972 20.5364 94.3874 20.5364C93.9336 20.5364 93.53 20.424 93.1748 20.1991C92.818 19.9743 92.4351 19.5985 92.0246 19.0681L89.9181 16.3845V20.3186C89.7605 20.3467 89.5301 20.3853 89.2252 20.438C88.9203 20.4889 88.6103 20.5153 88.2967 20.5153C87.9814 20.5153 87.7008 20.4907 87.4514 20.445C87.2054 20.4029 86.9975 20.3186 86.8277 20.1921C86.6562 20.0622 86.5246 19.8865 86.4328 19.6652C86.3392 19.4404 86.2942 19.1489 86.2942 18.7871V6.28223C86.4501 6.24008 86.6822 6.19442 86.9871 6.14173C87.292 6.0908 87.6003 6.06445 87.9156 6.06445C88.224 6.06445 88.5046 6.08904 88.754 6.13471C89.0035 6.17686 89.2131 6.26467 89.3846 6.39464C89.5544 6.52109 89.686 6.69672 89.7796 6.92153C89.8714 7.14282 89.9181 7.43261 89.9181 7.79265V13.4971L93.5767 9.69648C94.3147 9.69648 94.9089 9.86333 95.3575 10.1953C95.8044 10.5237 96.0296 10.9399 96.0296 11.4458C96.0296 11.6618 95.9915 11.8585 95.9188 12.0359C95.8495 12.215 95.7403 12.3977 95.5931 12.5838C95.4441 12.7718 95.2536 12.9702 95.018 13.181C94.7824 13.3917 94.507 13.6341 94.1934 13.9046L92.96 14.9865L96.3692 18.4358Z" fill="white"/>
<path d="M108.788 15.0915C108.788 15.9872 108.651 16.7828 108.379 17.4801C108.11 18.1791 107.731 18.7657 107.242 19.2434C106.752 19.7176 106.165 20.0759 105.482 20.3182C104.803 20.5606 104.045 20.6835 103.21 20.6835C102.368 20.6835 101.606 20.5536 100.923 20.2972C100.244 20.0407 99.6585 19.6702 99.17 19.1872C98.6797 18.7059 98.2986 18.1176 98.0266 17.4239C97.7581 16.7319 97.6248 15.9538 97.6248 15.0915C97.6248 14.245 97.7581 13.4757 98.0266 12.7872C98.2986 12.0952 98.6797 11.5069 99.17 11.0239C99.6585 10.5427 100.244 10.1721 100.923 9.91392C101.606 9.65223 102.368 9.52051 103.21 9.52051C104.045 9.52051 104.803 9.65399 105.482 9.92094C106.165 10.1879 106.752 10.5637 107.242 11.045C107.731 11.528 108.11 12.1163 108.379 12.8083C108.651 13.4968 108.788 14.259 108.788 15.0915ZM101.332 15.0915C101.332 15.9731 101.498 16.6476 101.831 17.1147C102.167 17.5784 102.635 17.8102 103.23 17.8102C103.826 17.8102 104.284 17.5749 104.602 17.1007C104.921 16.623 105.081 15.9538 105.081 15.0915C105.081 14.2309 104.916 13.5653 104.589 13.0963C104.265 12.6292 103.806 12.3938 103.21 12.3938C102.614 12.3938 102.151 12.6292 101.824 13.0963C101.495 13.5653 101.332 14.2309 101.332 15.0915Z" fill="white"/>
</svg>
