<svg width="15" height="15" viewBox="0 0 15 15" fill="none" xmlns="http://www.w3.org/2000/svg">
<g clip-path="url(#clip0_873_19010)">
<path d="M3.41602 10.9185L7.16461 7.16992L7.82742 7.83273L4.07883 11.5813L3.41602 10.9185Z" fill="black"/>
<path d="M7.9686 14.0625C7.90924 14.0627 7.85038 14.0515 7.79517 14.0297C7.71837 13.9991 7.65104 13.9487 7.6 13.8837C7.54896 13.8187 7.51603 13.7413 7.50454 13.6594L7.03579 10.3782L7.97329 10.2469L8.32486 12.7172L9.8436 11.4938V7.96878C9.84325 7.90709 9.85507 7.84593 9.8784 7.78882C9.90173 7.73171 9.9361 7.67977 9.97954 7.63597L11.8874 5.72815C12.2805 5.33771 12.5922 4.87319 12.8047 4.36146C13.0171 3.84973 13.1259 3.30096 13.1249 2.7469V1.87503H12.253C11.6989 1.87398 11.1502 1.98281 10.6384 2.19522C10.1267 2.40763 9.66217 2.71942 9.27173 3.11253L7.36392 5.02034C7.32012 5.06379 7.26817 5.09816 7.21106 5.12148C7.15395 5.14481 7.0928 5.15664 7.0311 5.15628H3.5061L2.28267 6.6844L4.75298 7.03597L4.62173 7.97347L1.34048 7.50472C1.25861 7.49323 1.18123 7.4603 1.1162 7.40926C1.05116 7.35822 1.00078 7.29089 0.970167 7.21409C0.939174 7.13676 0.929351 7.05256 0.94171 6.97017C0.954068 6.88778 0.988162 6.81018 1.04048 6.74534L2.91548 4.40159C2.95866 4.34549 3.01399 4.29989 3.07731 4.26823C3.14064 4.23657 3.21031 4.21966 3.2811 4.21878H6.83892L8.60611 2.4469C9.08384 1.96648 9.65219 1.58569 10.2782 1.32659C10.9042 1.06749 11.5755 0.935247 12.253 0.937529H13.1249C13.3735 0.937529 13.612 1.0363 13.7878 1.21212C13.9636 1.38793 14.0624 1.62639 14.0624 1.87503V2.7469C14.0646 3.42442 13.9324 4.09565 13.6733 4.72167C13.4142 5.34769 13.0334 5.91604 12.553 6.39378L10.7811 8.16097V11.7188C10.7808 11.7892 10.7646 11.8586 10.7338 11.9219C10.7029 11.9852 10.6582 12.0408 10.603 12.0844L8.25923 13.9594C8.17676 14.0256 8.07434 14.0619 7.9686 14.0625Z" fill="black"/>
</g>
<defs>
<clipPath id="clip0_873_19010">
<rect width="15" height="15" fill="white"/>
</clipPath>
</defs>
</svg>
