<svg width="13" height="14" viewBox="0 0 13 14" fill="none" xmlns="http://www.w3.org/2000/svg">
<path d="M5.96 1.53624C6.14667 1.04391 6.85308 1.04391 7.04033 1.53624L8.24783 4.88108C8.28996 4.99003 8.36414 5.08366 8.46058 5.14958C8.55702 5.21551 8.67118 5.25063 8.788 5.25033H11.7554C12.3037 5.25033 12.5429 5.93283 12.1118 6.26708L10.0002 8.16699C9.90558 8.23971 9.83645 8.34052 9.8027 8.45496C9.76896 8.5694 9.77233 8.69159 9.81233 8.80399L10.5835 12.0724C10.7713 12.5974 10.1635 13.0483 9.70383 12.7252L6.83558 10.9052C6.73736 10.8361 6.62022 10.7991 6.50017 10.7991C6.38011 10.7991 6.26298 10.8361 6.16475 10.9052L3.2965 12.7252C2.83742 13.0483 2.229 12.5968 2.41683 12.0724L3.188 8.80399C3.228 8.69159 3.23138 8.5694 3.19763 8.45496C3.16389 8.34052 3.09476 8.23971 3.00017 8.16699L0.8885 6.26708C0.456833 5.93283 0.697167 5.25033 1.24433 5.25033H4.21175C4.32859 5.25071 4.44279 5.21562 4.53924 5.14968C4.6357 5.08375 4.70986 4.99008 4.75192 4.88108L5.95942 1.53624H5.96Z" stroke="black" stroke-linecap="round" stroke-linejoin="round"/>
</svg>
