<svg width="30" height="30" viewBox="0 0 30 30" fill="none" xmlns="http://www.w3.org/2000/svg">
<rect width="30" height="30" rx="15" fill="#252E8D"/>
<mask id="path-2-inside-1_874_44651" fill="white">
<path d="M24.9343 10.0583C24.8925 10.0186 24.837 9.99831 24.7783 10.0004C23.4105 10.0682 21.9245 10.2956 20.1026 10.7159C20.0454 10.7292 19.9962 10.7655 19.9669 10.8164C19.9376 10.8672 19.931 10.928 19.9483 10.984L20.1252 11.5548C18.7819 11.0454 16.8925 10.7522 15.257 10.8166C14.6575 10.8166 13.973 11.114 13.3475 11.5555H10.8743L11.0515 10.9838C11.069 10.9276 11.062 10.867 11.0329 10.8162C11.0038 10.7653 10.9546 10.7288 10.8974 10.7157C9.07547 10.2953 7.58967 10.068 6.22167 10.0002C6.16488 9.99768 6.10767 10.0182 6.06566 10.0581C6.02364 10.0982 6 10.1535 6 10.2113V17.4613C6 17.578 6.09458 17.6724 6.21111 17.6724H8.82424C8.91671 17.6724 8.99862 17.6122 9.02586 17.5238L9.1255 17.2023C11.2761 19.7086 13.463 22.0103 15.1705 22.0103C15.4992 22.0103 15.8099 21.9236 16.0996 21.738L16.1441 21.7832C16.3434 21.985 16.6104 22.0971 16.8959 22.0988C16.8982 22.0988 16.9003 22.0988 16.9026 22.0988C17.1853 22.0988 17.4509 21.9901 17.6512 21.7925C17.8273 21.6183 17.9255 21.397 17.9544 21.1684C18.1507 21.3312 18.3895 21.4175 18.6312 21.4175C18.9016 21.4173 19.1725 21.3153 19.38 21.1106C19.6141 20.8792 19.7136 20.5657 19.6874 20.2608C19.7815 20.2841 19.8768 20.2999 19.9724 20.2999C20.2432 20.2999 20.5082 20.2064 20.7003 20.0166C20.9021 19.8173 21.0142 19.5502 21.0159 19.2648C21.0176 18.9794 20.9089 18.7113 20.7231 18.5245C20.6454 18.4288 20.5652 18.337 20.4864 18.2428L21.9254 17.3669L21.9739 17.5236C22.0014 17.612 22.0831 17.6722 22.1755 17.6722H24.7889C24.9056 17.6722 25 17.5778 25 17.4611V10.2113C25 10.1535 24.9764 10.0982 24.9343 10.0583ZM8.66866 17.2502H6.42222V10.4345C7.64793 10.5103 8.98131 10.7163 10.5809 11.0769L8.66866 17.2502ZM20.4035 19.716C20.163 19.9537 19.7047 19.9281 19.4417 19.6615C19.4381 19.6579 19.4334 19.6566 19.4296 19.6535C19.4155 19.6372 19.4047 19.6191 19.3893 19.6034L17.0776 17.2631C16.9953 17.1803 16.8621 17.1795 16.7789 17.2612C16.6959 17.3433 16.6953 17.4767 16.777 17.5599L19.0887 19.9003C19.2088 20.0217 19.2745 20.1838 19.2734 20.3563C19.2723 20.5285 19.2048 20.6898 19.0832 20.8097C18.8309 21.0595 18.4228 21.0563 18.1733 20.8042L17.6614 20.286C17.6609 20.2855 17.6607 20.2851 17.6605 20.2849L15.3488 17.9447C15.2667 17.8622 15.1331 17.8611 15.0503 17.9428C14.9674 18.025 14.9665 18.1584 15.0484 18.2416L17.3599 20.5819C17.6094 20.8342 17.6069 21.2425 17.3544 21.4918C17.1019 21.7414 16.6936 21.7384 16.4445 21.4863L13.6198 18.6268C13.5377 18.5441 13.4041 18.5428 13.3213 18.6252C13.2384 18.7071 13.2375 18.8407 13.3194 18.9237L15.7918 21.4264C14.2221 22.2653 11.6223 19.4759 9.27328 16.7254L10.7437 11.9781H12.8157C12.2371 12.4915 11.76 13.1046 11.5296 13.6634C11.2349 14.3782 11.4268 14.7802 11.6396 14.9915C11.6451 14.997 11.651 15.0023 11.6571 15.0071C12.4684 15.6504 13.2675 15.8125 14.512 14.5252C14.9344 14.5509 15.2942 14.4777 15.6064 14.3005C17.3599 15.5265 18.9709 17.0368 20.409 18.8063C20.6585 19.0586 20.656 19.4669 20.4035 19.716ZM20.2116 17.916C18.8592 16.3517 17.3559 14.9936 15.7326 13.8741C15.6607 13.8243 15.5652 13.8243 15.4932 13.8739C15.2142 14.0654 14.8728 14.138 14.4495 14.0966C14.3839 14.0894 14.3199 14.1143 14.2749 14.1621C13.0959 15.4167 12.5134 15.145 11.9297 14.6841C11.7194 14.4648 11.8079 14.0964 11.92 13.8243C12.3895 12.6847 14.0549 11.239 15.2652 11.2388C16.9904 11.1727 18.9911 11.5082 20.2867 12.0763L21.7966 16.951L20.2116 17.916ZM24.5778 17.2502H22.3311L20.4189 11.0769C22.0185 10.7163 23.3521 10.5103 24.5776 10.4345V17.2502H24.5778Z"/>
</mask>
<path d="M24.9343 10.0583C24.8925 10.0186 24.837 9.99831 24.7783 10.0004C23.4105 10.0682 21.9245 10.2956 20.1026 10.7159C20.0454 10.7292 19.9962 10.7655 19.9669 10.8164C19.9376 10.8672 19.931 10.928 19.9483 10.984L20.1252 11.5548C18.7819 11.0454 16.8925 10.7522 15.257 10.8166C14.6575 10.8166 13.973 11.114 13.3475 11.5555H10.8743L11.0515 10.9838C11.069 10.9276 11.062 10.867 11.0329 10.8162C11.0038 10.7653 10.9546 10.7288 10.8974 10.7157C9.07547 10.2953 7.58967 10.068 6.22167 10.0002C6.16488 9.99768 6.10767 10.0182 6.06566 10.0581C6.02364 10.0982 6 10.1535 6 10.2113V17.4613C6 17.578 6.09458 17.6724 6.21111 17.6724H8.82424C8.91671 17.6724 8.99862 17.6122 9.02586 17.5238L9.1255 17.2023C11.2761 19.7086 13.463 22.0103 15.1705 22.0103C15.4992 22.0103 15.8099 21.9236 16.0996 21.738L16.1441 21.7832C16.3434 21.985 16.6104 22.0971 16.8959 22.0988C16.8982 22.0988 16.9003 22.0988 16.9026 22.0988C17.1853 22.0988 17.4509 21.9901 17.6512 21.7925C17.8273 21.6183 17.9255 21.397 17.9544 21.1684C18.1507 21.3312 18.3895 21.4175 18.6312 21.4175C18.9016 21.4173 19.1725 21.3153 19.38 21.1106C19.6141 20.8792 19.7136 20.5657 19.6874 20.2608C19.7815 20.2841 19.8768 20.2999 19.9724 20.2999C20.2432 20.2999 20.5082 20.2064 20.7003 20.0166C20.9021 19.8173 21.0142 19.5502 21.0159 19.2648C21.0176 18.9794 20.9089 18.7113 20.7231 18.5245C20.6454 18.4288 20.5652 18.337 20.4864 18.2428L21.9254 17.3669L21.9739 17.5236C22.0014 17.612 22.0831 17.6722 22.1755 17.6722H24.7889C24.9056 17.6722 25 17.5778 25 17.4611V10.2113C25 10.1535 24.9764 10.0982 24.9343 10.0583ZM8.66866 17.2502H6.42222V10.4345C7.64793 10.5103 8.98131 10.7163 10.5809 11.0769L8.66866 17.2502ZM20.4035 19.716C20.163 19.9537 19.7047 19.9281 19.4417 19.6615C19.4381 19.6579 19.4334 19.6566 19.4296 19.6535C19.4155 19.6372 19.4047 19.6191 19.3893 19.6034L17.0776 17.2631C16.9953 17.1803 16.8621 17.1795 16.7789 17.2612C16.6959 17.3433 16.6953 17.4767 16.777 17.5599L19.0887 19.9003C19.2088 20.0217 19.2745 20.1838 19.2734 20.3563C19.2723 20.5285 19.2048 20.6898 19.0832 20.8097C18.8309 21.0595 18.4228 21.0563 18.1733 20.8042L17.6614 20.286C17.6609 20.2855 17.6607 20.2851 17.6605 20.2849L15.3488 17.9447C15.2667 17.8622 15.1331 17.8611 15.0503 17.9428C14.9674 18.025 14.9665 18.1584 15.0484 18.2416L17.3599 20.5819C17.6094 20.8342 17.6069 21.2425 17.3544 21.4918C17.1019 21.7414 16.6936 21.7384 16.4445 21.4863L13.6198 18.6268C13.5377 18.5441 13.4041 18.5428 13.3213 18.6252C13.2384 18.7071 13.2375 18.8407 13.3194 18.9237L15.7918 21.4264C14.2221 22.2653 11.6223 19.4759 9.27328 16.7254L10.7437 11.9781H12.8157C12.2371 12.4915 11.76 13.1046 11.5296 13.6634C11.2349 14.3782 11.4268 14.7802 11.6396 14.9915C11.6451 14.997 11.651 15.0023 11.6571 15.0071C12.4684 15.6504 13.2675 15.8125 14.512 14.5252C14.9344 14.5509 15.2942 14.4777 15.6064 14.3005C17.3599 15.5265 18.9709 17.0368 20.409 18.8063C20.6585 19.0586 20.656 19.4669 20.4035 19.716ZM20.2116 17.916C18.8592 16.3517 17.3559 14.9936 15.7326 13.8741C15.6607 13.8243 15.5652 13.8243 15.4932 13.8739C15.2142 14.0654 14.8728 14.138 14.4495 14.0966C14.3839 14.0894 14.3199 14.1143 14.2749 14.1621C13.0959 15.4167 12.5134 15.145 11.9297 14.6841C11.7194 14.4648 11.8079 14.0964 11.92 13.8243C12.3895 12.6847 14.0549 11.239 15.2652 11.2388C16.9904 11.1727 18.9911 11.5082 20.2867 12.0763L21.7966 16.951L20.2116 17.916ZM24.5778 17.2502H22.3311L20.4189 11.0769C22.0185 10.7163 23.3521 10.5103 24.5776 10.4345V17.2502H24.5778Z" fill="white"/>
<path d="M24.9343 10.0583L27.689 7.1579L27.6886 7.15754L24.9343 10.0583ZM24.7783 10.0004L24.6345 6.00301L24.6075 6.00398L24.5804 6.00532L24.7783 10.0004ZM20.1026 10.7159L19.2034 6.81825L19.1969 6.81977L20.1026 10.7159ZM19.9483 10.984L16.1271 12.1664L16.1276 12.1681L19.9483 10.984ZM20.1252 11.5548L18.7069 15.2949L26.373 18.2021L23.946 10.3707L20.1252 11.5548ZM15.257 10.8166V14.8166H15.3357L15.4144 14.8135L15.257 10.8166ZM13.3475 11.5555V15.5555H14.6168L15.6539 14.8236L13.3475 11.5555ZM10.8743 11.5555L7.05352 10.3717L5.44747 15.5555H10.8743V11.5555ZM11.0515 10.9838L7.23303 9.79231L7.23065 9.8L11.0515 10.9838ZM10.8974 10.7157L9.99815 14.6133L10.0053 14.6149L10.8974 10.7157ZM6.22167 10.0002L6.41957 6.00511L6.40975 6.00462L6.39993 6.00418L6.22167 10.0002ZM6.06566 10.0581L3.31103 7.15768L3.30341 7.16496L6.06566 10.0581ZM9.02586 17.5238L5.20513 16.3397L5.20294 16.3468L9.02586 17.5238ZM9.1255 17.2023L12.1611 14.5975L7.44752 9.10419L5.30478 16.0182L9.1255 17.2023ZM16.0996 21.738L18.9479 18.9296L16.6717 16.6209L13.9417 18.3699L16.0996 21.738ZM16.1441 21.7832L13.2957 24.5915L13.2979 24.5937L16.1441 21.7832ZM16.8959 22.0988L16.8722 26.0987L16.884 26.0988H16.8959V22.0988ZM17.6512 21.7925L20.4601 24.6403L20.4643 24.6362L17.6512 21.7925ZM17.9544 21.1684L20.5073 18.089L14.9001 13.4405L13.986 20.6664L17.9544 21.1684ZM18.6312 21.4175V25.4175L18.6343 25.4175L18.6312 21.4175ZM19.38 21.1106L22.1896 23.9578L22.1917 23.9556L19.38 21.1106ZM19.6874 20.2608L20.6452 16.3772L15.2244 15.0402L15.7021 20.6031L19.6874 20.2608ZM20.7003 20.0166L17.8898 17.1704L17.8891 17.171L20.7003 20.0166ZM20.7231 18.5245L17.6184 21.0466L17.7451 21.2024L17.8867 21.3449L20.7231 18.5245ZM20.4864 18.2428L18.4066 14.8261L14.4359 17.2431L17.4181 20.809L20.4864 18.2428ZM21.9254 17.3669L25.746 16.1826L24.2272 11.283L19.8455 13.9502L21.9254 17.3669ZM21.9739 17.5236L18.1533 18.7079L18.1536 18.7089L21.9739 17.5236ZM8.66866 17.2502V21.2502H11.6171L12.4895 18.4337L8.66866 17.2502ZM6.42222 17.2502H2.42222V21.2502H6.42222V17.2502ZM6.42222 10.4345L6.66908 6.44209L2.42222 6.1795V10.4345H6.42222ZM10.5809 11.0769L14.4018 12.2604L15.6823 8.12647L11.4605 7.17479L10.5809 11.0769ZM20.4035 19.716L17.5942 16.8686L17.5913 16.8714L20.4035 19.716ZM19.4417 19.6615L22.2892 16.8523L22.2797 16.8427L22.2701 16.8331L19.4417 19.6615ZM19.4296 19.6535L16.412 22.2792L16.6225 22.5211L16.8689 22.7264L19.4296 19.6535ZM19.3893 19.6034L22.2369 16.7943L22.2351 16.7925L19.3893 19.6034ZM17.0776 17.2631L19.9235 14.4521L19.9184 14.447L19.9133 14.4419L17.0776 17.2631ZM16.7789 17.2612L13.9759 14.4075L13.9705 14.4129L13.965 14.4183L16.7789 17.2612ZM16.777 17.5599L13.9233 20.3629L13.9312 20.3708L16.777 17.5599ZM19.0887 19.9003L16.2428 22.7112L16.2455 22.7138L19.0887 19.9003ZM19.2734 20.3563L23.2733 20.3808V20.3807L19.2734 20.3563ZM19.0832 20.8097L16.2746 17.9616L16.2691 17.9671L19.0832 20.8097ZM18.1733 20.8042L15.3275 23.6152L15.3306 23.6183L18.1733 20.8042ZM17.6614 20.286L20.5071 17.475L20.4985 17.4662L20.4898 17.4575L17.6614 20.286ZM17.6605 20.2849L14.8148 23.096L14.8234 23.1047L14.8321 23.1133L17.6605 20.2849ZM15.3488 17.9447L18.1945 15.1337L18.1895 15.1286L18.1845 15.1236L15.3488 17.9447ZM15.0503 17.9428L12.2401 15.0963L12.2364 15.1L15.0503 17.9428ZM15.0484 18.2416L12.1984 21.0482L12.2025 21.0524L15.0484 18.2416ZM17.3599 20.5819L14.5139 23.3927L14.516 23.3949L17.3599 20.5819ZM17.3544 21.4918L14.5439 18.6456L14.5427 18.6468L17.3544 21.4918ZM16.4445 21.4863L13.5988 24.2974L13.5995 24.298L16.4445 21.4863ZM13.6198 18.6268L16.4656 15.8158L16.4591 15.8093L13.6198 18.6268ZM13.3213 18.6252L16.1316 21.4716L16.1371 21.4662L16.1425 21.4608L13.3213 18.6252ZM13.3194 18.9237L10.473 21.7339L10.4738 21.7348L13.3194 18.9237ZM15.7918 21.4264L17.6773 24.9541L22.4037 22.4279L18.6374 18.6153L15.7918 21.4264ZM9.27328 16.7254L5.45236 15.5419L4.8003 17.6471L6.23156 19.323L9.27328 16.7254ZM10.7437 11.9781V7.97811H7.79513L6.92275 10.7946L10.7437 11.9781ZM12.8157 11.9781L15.4705 14.9702L23.3509 7.97811H12.8157V11.9781ZM11.5296 13.6634L15.2277 15.1881L15.2278 15.1877L11.5296 13.6634ZM11.6396 14.9915L14.4681 12.1631L14.4582 12.1532L11.6396 14.9915ZM11.6571 15.0071L9.17157 18.1411L9.17201 18.1415L11.6571 15.0071ZM14.512 14.5252L14.7554 10.5326L12.9166 10.4205L11.6361 11.745L14.512 14.5252ZM15.6064 14.3005L17.8983 11.0223L15.829 9.57551L13.6327 10.8214L15.6064 14.3005ZM20.409 18.8063L17.3048 21.329L17.4279 21.4805L17.5651 21.6192L20.409 18.8063ZM20.2116 17.916L17.1856 20.532L19.3998 23.0933L22.2917 21.3326L20.2116 17.916ZM15.7326 13.8741L13.4563 17.1632L13.4616 17.1669L15.7326 13.8741ZM15.4932 13.8739L17.7562 17.1722L17.763 17.1675L15.4932 13.8739ZM14.4495 14.0966L14.0148 18.0729L14.0376 18.0754L14.0603 18.0776L14.4495 14.0966ZM14.2749 14.1621L11.364 11.4186L11.3601 11.4228L14.2749 14.1621ZM11.9297 14.6841L9.04214 17.4522L9.23374 17.652L9.45104 17.8236L11.9297 14.6841ZM11.92 13.8243L8.22158 12.3005L8.2215 12.3007L11.92 13.8243ZM15.2652 11.2388L15.2659 15.2388L15.3422 15.2388L15.4183 15.2359L15.2652 11.2388ZM20.2867 12.0763L24.1077 10.8928L23.5669 9.14694L21.893 8.41298L20.2867 12.0763ZM21.7966 16.951L23.8767 20.3677L26.5401 18.7461L25.6175 15.7676L21.7966 16.951ZM22.3311 17.2502L18.5102 18.4337L19.3827 21.2502H22.3311V17.2502ZM20.4189 11.0769L19.5393 7.17479L15.3175 8.12647L16.598 12.2604L20.4189 11.0769ZM24.5776 10.4345H28.5776V6.17945L24.3307 6.44209L24.5776 10.4345ZM24.5776 17.2502H20.5776V21.2502H24.5776V17.2502ZM27.6886 7.15754C26.8339 6.34604 25.7204 5.96395 24.6345 6.00301L24.9221 13.9978C23.9536 14.0327 22.9512 13.6911 22.1801 12.959L27.6886 7.15754ZM24.5804 6.00532C22.9088 6.08814 21.1787 6.36256 19.2034 6.81826L21.0019 14.6135C22.6704 14.2286 23.9123 14.0482 24.9763 13.9955L24.5804 6.00532ZM19.1969 6.81977C18.0671 7.08242 17.0881 7.80163 16.5019 8.81789L23.4319 12.8148C22.9044 13.7293 22.0238 14.3759 21.0084 14.612L19.1969 6.81977ZM16.5019 8.81789C15.9105 9.84332 15.7841 11.0579 16.1271 12.1664L23.7696 9.80157C24.0779 10.7982 23.9646 11.8912 23.4319 12.8148L16.5019 8.81789ZM16.1276 12.1681L16.3045 12.7389L23.946 10.3707L23.769 9.7999L16.1276 12.1681ZM21.5436 7.81473C19.6476 7.09572 17.2161 6.73635 15.0997 6.81967L15.4144 14.8135C16.5689 14.768 17.9163 14.9951 18.7069 15.2949L21.5436 7.81473ZM15.257 6.81658C13.4712 6.81658 11.9706 7.63138 11.0412 8.28732L15.6539 14.8236C15.7611 14.7479 15.8144 14.7277 15.7961 14.735C15.7834 14.74 15.7351 14.7585 15.6524 14.7767C15.5701 14.7948 15.4355 14.8166 15.257 14.8166V6.81658ZM13.3475 7.55546H10.8743V15.5555H13.3475V7.55546ZM14.6952 12.7392L14.8723 12.1676L7.23065 9.8L7.05352 10.3717L14.6952 12.7392ZM14.8699 12.1752C15.2234 11.0424 15.0782 9.83114 14.5041 8.8285L7.56169 12.8038C7.04583 11.9029 6.91459 10.8129 7.23304 9.79231L14.8699 12.1752ZM14.5041 8.8285C13.9209 7.80998 12.9375 7.07907 11.7894 6.81641L10.0053 14.6149C8.97163 14.3784 8.08664 13.7206 7.56169 12.8038L14.5041 8.8285ZM11.7966 6.81805C9.82137 6.36236 8.09148 6.08793 6.41957 6.00511L6.02376 13.9953C7.08786 14.048 8.32956 14.2283 9.99815 14.6133L11.7966 6.81805ZM6.39993 6.00418C5.28929 5.95464 4.16416 6.34745 3.31104 7.15769L8.82027 12.9584C8.05118 13.6889 7.04046 14.0407 6.04341 13.9962L6.39993 6.00418ZM3.30341 7.16496C2.47197 7.95879 2 9.059 2 10.2113H10C10 11.248 9.57531 12.2375 8.8279 12.9511L3.30341 7.16496ZM2 10.2113V17.4613H10V10.2113H2ZM2 17.4613C2 19.7898 3.88804 21.6724 6.21111 21.6724V13.6724C8.30111 13.6724 10 15.3663 10 17.4613H2ZM6.21111 21.6724H8.82424V13.6724H6.21111V21.6724ZM8.82424 21.6724C10.6637 21.6724 12.3023 20.4756 12.8488 18.7008L5.20294 16.3468C5.6949 14.7489 7.16969 13.6724 8.82424 13.6724V21.6724ZM12.8466 18.7079L12.9462 18.3864L5.30478 16.0182L5.20513 16.3397L12.8466 18.7079ZM6.08986 19.8071C7.17269 21.069 8.42453 22.4721 9.69957 23.5734C10.7809 24.5073 12.7366 26.0103 15.1705 26.0103V18.0103C15.6253 18.0103 15.8273 18.155 15.6882 18.0809C15.5647 18.0152 15.3142 17.8519 14.9287 17.519C14.1458 16.8427 13.2289 15.8419 12.1611 14.5975L6.08986 19.8071ZM15.1705 26.0103C16.2474 26.0103 17.3098 25.7131 18.2574 25.106L13.9417 18.3699C14.31 18.134 14.7509 18.0103 15.1705 18.0103V26.0103ZM13.2512 24.5463L13.2957 24.5915L18.9925 18.9748L18.9479 18.9296L13.2512 24.5463ZM13.2979 24.5937C14.2484 25.5563 15.5332 26.0908 16.8722 26.0987L16.9195 18.0988C17.6877 18.1034 18.4384 18.4137 18.9903 18.9727L13.2979 24.5937ZM16.8959 26.0988C16.8959 26.0988 16.8959 26.0988 16.8959 26.0988C16.8959 26.0988 16.8959 26.0988 16.8959 26.0988C16.8959 26.0988 16.8959 26.0988 16.8959 26.0988C16.8959 26.0988 16.8959 26.0988 16.8959 26.0988C16.8959 26.0988 16.8959 26.0988 16.8959 26.0988C16.8959 26.0988 16.8959 26.0988 16.8959 26.0988C16.896 26.0988 16.896 26.0988 16.896 26.0988C16.896 26.0988 16.896 26.0988 16.896 26.0988C16.896 26.0988 16.896 26.0988 16.896 26.0988C16.896 26.0988 16.896 26.0988 16.896 26.0988C16.896 26.0988 16.896 26.0988 16.896 26.0988C16.896 26.0988 16.896 26.0988 16.896 26.0988C16.896 26.0988 16.896 26.0988 16.896 26.0988C16.896 26.0988 16.8961 26.0988 16.8961 26.0988C16.8961 26.0988 16.8961 26.0988 16.8961 26.0988C16.8961 26.0988 16.8961 26.0988 16.8961 26.0988C16.8961 26.0988 16.8961 26.0988 16.8961 26.0988C16.8961 26.0988 16.8961 26.0988 16.8961 26.0988C16.8961 26.0988 16.8961 26.0988 16.8961 26.0988C16.8961 26.0988 16.8961 26.0988 16.8961 26.0988C16.8961 26.0988 16.8961 26.0988 16.8962 26.0988C16.8962 26.0988 16.8962 26.0988 16.8962 26.0988C16.8962 26.0988 16.8962 26.0988 16.8962 26.0988C16.8962 26.0988 16.8962 26.0988 16.8962 26.0988C16.8962 26.0988 16.8962 26.0988 16.8962 26.0988C16.8962 26.0988 16.8962 26.0988 16.8962 26.0988C16.8962 26.0988 16.8962 26.0988 16.8962 26.0988C16.8962 26.0988 16.8962 26.0988 16.8962 26.0988C16.8963 26.0988 16.8963 26.0988 16.8963 26.0988C16.8963 26.0988 16.8963 26.0988 16.8963 26.0988C16.8963 26.0988 16.8963 26.0988 16.8963 26.0988C16.8963 26.0988 16.8963 26.0988 16.8963 26.0988C16.8963 26.0988 16.8963 26.0988 16.8963 26.0988C16.8963 26.0988 16.8963 26.0988 16.8963 26.0988C16.8963 26.0988 16.8963 26.0988 16.8963 26.0988C16.8963 26.0988 16.8963 26.0988 16.8964 26.0988C16.8964 26.0988 16.8964 26.0988 16.8964 26.0988C16.8964 26.0988 16.8964 26.0988 16.8964 26.0988C16.8964 26.0988 16.8964 26.0988 16.8964 26.0988C16.8964 26.0988 16.8964 26.0988 16.8964 26.0988C16.8964 26.0988 16.8964 26.0988 16.8964 26.0988C16.8964 26.0988 16.8964 26.0988 16.8964 26.0988C16.8964 26.0988 16.8964 26.0988 16.8964 26.0988C16.8965 26.0988 16.8965 26.0988 16.8965 26.0988C16.8965 26.0988 16.8965 26.0988 16.8965 26.0988C16.8965 26.0988 16.8965 26.0988 16.8965 26.0988C16.8965 26.0988 16.8965 26.0988 16.8965 26.0988C16.8965 26.0988 16.8965 26.0988 16.8965 26.0988C16.8965 26.0988 16.8965 26.0988 16.8965 26.0988C16.8965 26.0988 16.8965 26.0988 16.8965 26.0988C16.8965 26.0988 16.8966 26.0988 16.8966 26.0988C16.8966 26.0988 16.8966 26.0988 16.8966 26.0988C16.8966 26.0988 16.8966 26.0988 16.8966 26.0988C16.8966 26.0988 16.8966 26.0988 16.8966 26.0988C16.8966 26.0988 16.8966 26.0988 16.8966 26.0988C16.8966 26.0988 16.8966 26.0988 16.8966 26.0988C16.8966 26.0988 16.8966 26.0988 16.8966 26.0988C16.8966 26.0988 16.8966 26.0988 16.8966 26.0988C16.8967 26.0988 16.8967 26.0988 16.8967 26.0988C16.8967 26.0988 16.8967 26.0988 16.8967 26.0988C16.8967 26.0988 16.8967 26.0988 16.8967 26.0988C16.8967 26.0988 16.8967 26.0988 16.8967 26.0988C16.8967 26.0988 16.8967 26.0988 16.8967 26.0988C16.8967 26.0988 16.8967 26.0988 16.8967 26.0988C16.8967 26.0988 16.8967 26.0988 16.8967 26.0988C16.8967 26.0988 16.8968 26.0988 16.8968 26.0988C16.8968 26.0988 16.8968 26.0988 16.8968 26.0988C16.8968 26.0988 16.8968 26.0988 16.8968 26.0988C16.8968 26.0988 16.8968 26.0988 16.8968 26.0988C16.8968 26.0988 16.8968 26.0988 16.8968 26.0988C16.8968 26.0988 16.8968 26.0988 16.8968 26.0988C16.8968 26.0988 16.8968 26.0988 16.8968 26.0988C16.8968 26.0988 16.8968 26.0988 16.8968 26.0988C16.8969 26.0988 16.8969 26.0988 16.8969 26.0988C16.8969 26.0988 16.8969 26.0988 16.8969 26.0988C16.8969 26.0988 16.8969 26.0988 16.8969 26.0988C16.8969 26.0988 16.8969 26.0988 16.8969 26.0988C16.8969 26.0988 16.8969 26.0988 16.8969 26.0988C16.8969 26.0988 16.8969 26.0988 16.8969 26.0988C16.8969 26.0988 16.8969 26.0988 16.8969 26.0988C16.8969 26.0988 16.897 26.0988 16.897 26.0988C16.897 26.0988 16.897 26.0988 16.897 26.0988C16.897 26.0988 16.897 26.0988 16.897 26.0988C16.897 26.0988 16.897 26.0988 16.897 26.0988C16.897 26.0988 16.897 26.0988 16.897 26.0988C16.897 26.0988 16.897 26.0988 16.897 26.0988C16.897 26.0988 16.897 26.0988 16.897 26.0988C16.897 26.0988 16.897 26.0988 16.897 26.0988C16.8971 26.0988 16.8971 26.0988 16.8971 26.0988C16.8971 26.0988 16.8971 26.0988 16.8971 26.0988C16.8971 26.0988 16.8971 26.0988 16.8971 26.0988C16.8971 26.0988 16.8971 26.0988 16.8971 26.0988C16.8971 26.0988 16.8971 26.0988 16.8971 26.0988C16.8971 26.0988 16.8971 26.0988 16.8971 26.0988C16.8971 26.0988 16.8971 26.0988 16.8971 26.0988C16.8971 26.0988 16.8971 26.0988 16.8972 26.0988C16.8972 26.0988 16.8972 26.0988 16.8972 26.0988C16.8972 26.0988 16.8972 26.0988 16.8972 26.0988C16.8972 26.0988 16.8972 26.0988 16.8972 26.0988C16.8972 26.0988 16.8972 26.0988 16.8972 26.0988C16.8972 26.0988 16.8972 26.0988 16.8972 26.0988C16.8972 26.0988 16.8972 26.0988 16.8972 26.0988C16.8972 26.0988 16.8972 26.0988 16.8972 26.0988C16.8973 26.0988 16.8973 26.0988 16.8973 26.0988C16.8973 26.0988 16.8973 26.0988 16.8973 26.0988C16.8973 26.0988 16.8973 26.0988 16.8973 26.0988C16.8973 26.0988 16.8973 26.0988 16.8973 26.0988C16.8973 26.0988 16.8973 26.0988 16.8973 26.0988C16.8973 26.0988 16.8973 26.0988 16.8973 26.0988C16.8973 26.0988 16.8973 26.0988 16.8973 26.0988C16.8973 26.0988 16.8973 26.0988 16.8974 26.0988C16.8974 26.0988 16.8974 26.0988 16.8974 26.0988C16.8974 26.0988 16.8974 26.0988 16.8974 26.0988C16.8974 26.0988 16.8974 26.0988 16.8974 26.0988C16.8974 26.0988 16.8974 26.0988 16.8974 26.0988C16.8974 26.0988 16.8974 26.0988 16.8974 26.0988C16.8974 26.0988 16.8974 26.0988 16.8974 26.0988C16.8974 26.0988 16.8974 26.0988 16.8974 26.0988C16.8974 26.0988 16.8975 26.0988 16.8975 26.0988C16.8975 26.0988 16.8975 26.0988 16.8975 26.0988C16.8975 26.0988 16.8975 26.0988 16.8975 26.0988C16.8975 26.0988 16.8975 26.0988 16.8975 26.0988C16.8975 26.0988 16.8975 26.0988 16.8975 26.0988C16.8975 26.0988 16.8975 26.0988 16.8975 26.0988C16.8975 26.0988 16.8975 26.0988 16.8975 26.0988C16.8975 26.0988 16.8975 26.0988 16.8975 26.0988C16.8976 26.0988 16.8976 26.0988 16.8976 26.0988C16.8976 26.0988 16.8976 26.0988 16.8976 26.0988C16.8976 26.0988 16.8976 26.0988 16.8976 26.0988C16.8976 26.0988 16.8976 26.0988 16.8976 26.0988C16.8976 26.0988 16.8976 26.0988 16.8976 26.0988C16.8976 26.0988 16.8976 26.0988 16.8976 26.0988C16.8976 26.0988 16.8976 26.0988 16.8976 26.0988C16.8976 26.0988 16.8976 26.0988 16.8977 26.0988C16.8977 26.0988 16.8977 26.0988 16.8977 26.0988C16.8977 26.0988 16.8977 26.0988 16.8977 26.0988C16.8977 26.0988 16.8977 26.0988 16.8977 26.0988C16.8977 26.0988 16.8977 26.0988 16.8977 26.0988C16.8977 26.0988 16.8977 26.0988 16.8977 26.0988C16.8977 26.0988 16.8977 26.0988 16.8977 26.0988C16.8977 26.0988 16.8977 26.0988 16.8977 26.0988C16.8978 26.0988 16.8978 26.0988 16.8978 26.0988C16.8978 26.0988 16.8978 26.0988 16.8978 26.0988C16.8978 26.0988 16.8978 26.0988 16.8978 26.0988C16.8978 26.0988 16.8978 26.0988 16.8978 26.0988C16.8978 26.0988 16.8978 26.0988 16.8978 26.0988C16.8978 26.0988 16.8978 26.0988 16.8978 26.0988C16.8978 26.0988 16.8978 26.0988 16.8978 26.0988C16.8978 26.0988 16.8978 26.0988 16.8979 26.0988C16.8979 26.0988 16.8979 26.0988 16.8979 26.0988C16.8979 26.0988 16.8979 26.0988 16.8979 26.0988C16.8979 26.0988 16.8979 26.0988 16.8979 26.0988C16.8979 26.0988 16.8979 26.0988 16.8979 26.0988C16.8979 26.0988 16.8979 26.0988 16.8979 26.0988C16.8979 26.0988 16.8979 26.0988 16.8979 26.0988C16.8979 26.0988 16.8979 26.0988 16.8979 26.0988C16.8979 26.0988 16.898 26.0988 16.898 26.0988C16.898 26.0988 16.898 26.0988 16.898 26.0988C16.898 26.0988 16.898 26.0988 16.898 26.0988C16.898 26.0988 16.898 26.0988 16.898 26.0988C16.898 26.0988 16.898 26.0988 16.898 26.0988C16.898 26.0988 16.898 26.0988 16.898 26.0988C16.898 26.0988 16.898 26.0988 16.898 26.0988C16.898 26.0988 16.898 26.0988 16.898 26.0988C16.8981 26.0988 16.8981 26.0988 16.8981 26.0988C16.8981 26.0988 16.8981 26.0988 16.8981 26.0988C16.8981 26.0988 16.8981 26.0988 16.8981 26.0988C16.8981 26.0988 16.8981 26.0988 16.8981 26.0988C16.8981 26.0988 16.8981 26.0988 16.8981 26.0988C16.8981 26.0988 16.8981 26.0988 16.8981 26.0988C16.8981 26.0988 16.8981 26.0988 16.8981 26.0988C16.8981 26.0988 16.8981 26.0988 16.8982 26.0988C16.8982 26.0988 16.8982 26.0988 16.8982 26.0988C16.8982 26.0988 16.8982 26.0988 16.8982 26.0988C16.8982 26.0988 16.8982 26.0988 16.8982 26.0988C16.8982 26.0988 16.8982 26.0988 16.8982 26.0988C16.8982 26.0988 16.8982 26.0988 16.8982 26.0988C16.8982 26.0988 16.8982 26.0988 16.8982 26.0988C16.8982 26.0988 16.8982 26.0988 16.8982 26.0988C16.8982 26.0988 16.8983 26.0988 16.8983 26.0988C16.8983 26.0988 16.8983 26.0988 16.8983 26.0988C16.8983 26.0988 16.8983 26.0988 16.8983 26.0988C16.8983 26.0988 16.8983 26.0988 16.8983 26.0988C16.8983 26.0988 16.8983 26.0988 16.8983 26.0988C16.8983 26.0988 16.8983 26.0988 16.8983 26.0988C16.8983 26.0988 16.8983 26.0988 16.8983 26.0988C16.8983 26.0988 16.8983 26.0988 16.8983 26.0988C16.8984 26.0988 16.8984 26.0988 16.8984 26.0988C16.8984 26.0988 16.8984 26.0988 16.8984 26.0988C16.8984 26.0988 16.8984 26.0988 16.8984 26.0988C16.8984 26.0988 16.8984 26.0988 16.8984 26.0988C16.8984 26.0988 16.8984 26.0988 16.8984 26.0988C16.8984 26.0988 16.8984 26.0988 16.8984 26.0988C16.8984 26.0988 16.8984 26.0988 16.8984 26.0988C16.8984 26.0988 16.8984 26.0988 16.8985 26.0988C16.8985 26.0988 16.8985 26.0988 16.8985 26.0988C16.8985 26.0988 16.8985 26.0988 16.8985 26.0988C16.8985 26.0988 16.8985 26.0988 16.8985 26.0988C16.8985 26.0988 16.8985 26.0988 16.8985 26.0988C16.8985 26.0988 16.8985 26.0988 16.8985 26.0988C16.8985 26.0988 16.8985 26.0988 16.8985 26.0988C16.8985 26.0988 16.8985 26.0988 16.8985 26.0988C16.8985 26.0988 16.8986 26.0988 16.8986 26.0988C16.8986 26.0988 16.8986 26.0988 16.8986 26.0988C16.8986 26.0988 16.8986 26.0988 16.8986 26.0988C16.8986 26.0988 16.8986 26.0988 16.8986 26.0988C16.8986 26.0988 16.8986 26.0988 16.8986 26.0988C16.8986 26.0988 16.8986 26.0988 16.8986 26.0988C16.8986 26.0988 16.8986 26.0988 16.8986 26.0988C16.8986 26.0988 16.8986 26.0988 16.8986 26.0988C16.8987 26.0988 16.8987 26.0988 16.8987 26.0988C16.8987 26.0988 16.8987 26.0988 16.8987 26.0988C16.8987 26.0988 16.8987 26.0988 16.8987 26.0988C16.8987 26.0988 16.8987 26.0988 16.8987 26.0988C16.8987 26.0988 16.8987 26.0988 16.8987 26.0988C16.8987 26.0988 16.8987 26.0988 16.8987 26.0988C16.8987 26.0988 16.8987 26.0988 16.8987 26.0988C16.8987 26.0988 16.8987 26.0988 16.8988 26.0988C16.8988 26.0988 16.8988 26.0988 16.8988 26.0988C16.8988 26.0988 16.8988 26.0988 16.8988 26.0988C16.8988 26.0988 16.8988 26.0988 16.8988 26.0988C16.8988 26.0988 16.8988 26.0988 16.8988 26.0988C16.8988 26.0988 16.8988 26.0988 16.8988 26.0988C16.8988 26.0988 16.8988 26.0988 16.8988 26.0988C16.8988 26.0988 16.8988 26.0988 16.8988 26.0988C16.8988 26.0988 16.8989 26.0988 16.8989 26.0988C16.8989 26.0988 16.8989 26.0988 16.8989 26.0988C16.8989 26.0988 16.8989 26.0988 16.8989 26.0988C16.8989 26.0988 16.8989 26.0988 16.8989 26.0988C16.8989 26.0988 16.8989 26.0988 16.8989 26.0988C16.8989 26.0988 16.8989 26.0988 16.8989 26.0988C16.8989 26.0988 16.8989 26.0988 16.8989 26.0988C16.8989 26.0988 16.8989 26.0988 16.8989 26.0988C16.899 26.0988 16.899 26.0988 16.899 26.0988C16.899 26.0988 16.899 26.0988 16.899 26.0988C16.899 26.0988 16.899 26.0988 16.899 26.0988C16.899 26.0988 16.899 26.0988 16.899 26.0988C16.899 26.0988 16.899 26.0988 16.899 26.0988C16.899 26.0988 16.899 26.0988 16.899 26.0988C16.899 26.0988 16.899 26.0988 16.899 26.0988C16.899 26.0988 16.899 26.0988 16.899 26.0988C16.8991 26.0988 16.8991 26.0988 16.8991 26.0988C16.8991 26.0988 16.8991 26.0988 16.8991 26.0988C16.8991 26.0988 16.8991 26.0988 16.8991 26.0988C16.8991 26.0988 16.8991 26.0988 16.8991 26.0988C16.8991 26.0988 16.8991 26.0988 16.8991 26.0988C16.8991 26.0988 16.8991 26.0988 16.8991 26.0988C16.8991 26.0988 16.8991 26.0988 16.8991 26.0988C16.8991 26.0988 16.8991 26.0988 16.8992 26.0988C16.8992 26.0988 16.8992 26.0988 16.8992 26.0988C16.8992 26.0988 16.8992 26.0988 16.8992 26.0988C16.8992 26.0988 16.8992 26.0988 16.8992 26.0988C16.8992 26.0988 16.8992 26.0988 16.8992 26.0988C16.8992 26.0988 16.8992 26.0988 16.8992 26.0988C16.8992 26.0988 16.8992 26.0988 16.8992 26.0988C16.8992 26.0988 16.8992 26.0988 16.8992 26.0988C16.8992 26.0988 16.8993 26.0988 16.8993 26.0988C16.8993 26.0988 16.8993 26.0988 16.8993 26.0988C16.8993 26.0988 16.8993 26.0988 16.8993 26.0988C16.8993 26.0988 16.8993 26.0988 16.8993 26.0988C16.8993 26.0988 16.8993 26.0988 16.8993 26.0988C16.8993 26.0988 16.8993 26.0988 16.8993 26.0988C16.8993 26.0988 16.8993 26.0988 16.8993 26.0988C16.8993 26.0988 16.8993 26.0988 16.8993 26.0988C16.8994 26.0988 16.8994 26.0988 16.8994 26.0988C16.8994 26.0988 16.8994 26.0988 16.8994 26.0988C16.8994 26.0988 16.8994 26.0988 16.8994 26.0988C16.8994 26.0988 16.8994 26.0988 16.8994 26.0988C16.8994 26.0988 16.8994 26.0988 16.8994 26.0988C16.8994 26.0988 16.8994 26.0988 16.8994 26.0988C16.8994 26.0988 16.8994 26.0988 16.8994 26.0988C16.8994 26.0988 16.8994 26.0988 16.8995 26.0988C16.8995 26.0988 16.8995 26.0988 16.8995 26.0988C16.8995 26.0988 16.8995 26.0988 16.8995 26.0988C16.8995 26.0988 16.8995 26.0988 16.8995 26.0988C16.8995 26.0988 16.8995 26.0988 16.8995 26.0988C16.8995 26.0988 16.8995 26.0988 16.8995 26.0988C16.8995 26.0988 16.8995 26.0988 16.8995 26.0988C16.8995 26.0988 16.8995 26.0988 16.8995 26.0988C16.8995 26.0988 16.8996 26.0988 16.8996 26.0988C16.8996 26.0988 16.8996 26.0988 16.8996 26.0988C16.8996 26.0988 16.8996 26.0988 16.8996 26.0988C16.8996 26.0988 16.8996 26.0988 16.8996 26.0988C16.8996 26.0988 16.8996 26.0988 16.8996 26.0988C16.8996 26.0988 16.8996 26.0988 16.8996 26.0988C16.8996 26.0988 16.8996 26.0988 16.8996 26.0988C16.8996 26.0988 16.8996 26.0988 16.8996 26.0988C16.8997 26.0988 16.8997 26.0988 16.8997 26.0988C16.8997 26.0988 16.8997 26.0988 16.8997 26.0988C16.8997 26.0988 16.8997 26.0988 16.8997 26.0988C16.8997 26.0988 16.8997 26.0988 16.8997 26.0988C16.8997 26.0988 16.8997 26.0988 16.8997 26.0988C16.8997 26.0988 16.8997 26.0988 16.8997 26.0988C16.8997 26.0988 16.8997 26.0988 16.8997 26.0988C16.8997 26.0988 16.8997 26.0988 16.8998 26.0988C16.8998 26.0988 16.8998 26.0988 16.8998 26.0988C16.8998 26.0988 16.8998 26.0988 16.8998 26.0988C16.8998 26.0988 16.8998 26.0988 16.8998 26.0988C16.8998 26.0988 16.8998 26.0988 16.8998 26.0988C16.8998 26.0988 16.8998 26.0988 16.8998 26.0988C16.8998 26.0988 16.8998 26.0988 16.8998 26.0988C16.8998 26.0988 16.8998 26.0988 16.8998 26.0988C16.8998 26.0988 16.8999 26.0988 16.8999 26.0988C16.8999 26.0988 16.8999 26.0988 16.8999 26.0988C16.8999 26.0988 16.8999 26.0988 16.8999 26.0988C16.8999 26.0988 16.8999 26.0988 16.8999 26.0988C16.8999 26.0988 16.8999 26.0988 16.8999 26.0988C16.8999 26.0988 16.8999 26.0988 16.8999 26.0988C16.8999 26.0988 16.8999 26.0988 16.8999 26.0988C16.8999 26.0988 16.8999 26.0988 16.8999 26.0988C16.9 26.0988 16.9 26.0988 16.9 26.0988C16.9 26.0988 16.9 26.0988 16.9 26.0988C16.9 26.0988 16.9 26.0988 16.9 26.0988C16.9 26.0988 16.9 26.0988 16.9 26.0988C16.9 26.0988 16.9 26.0988 16.9 26.0988C16.9 26.0988 16.9 26.0988 16.9 26.0988C16.9 26.0988 16.9 26.0988 16.9 26.0988C16.9 26.0988 16.9 26.0988 16.9001 26.0988C16.9001 26.0988 16.9001 26.0988 16.9001 26.0988C16.9001 26.0988 16.9001 26.0988 16.9001 26.0988C16.9001 26.0988 16.9001 26.0988 16.9001 26.0988C16.9001 26.0988 16.9001 26.0988 16.9001 26.0988C16.9001 26.0988 16.9001 26.0988 16.9001 26.0988C16.9001 26.0988 16.9001 26.0988 16.9001 26.0988C16.9001 26.0988 16.9001 26.0988 16.9001 26.0988C16.9001 26.0988 16.9002 26.0988 16.9002 26.0988C16.9002 26.0988 16.9002 26.0988 16.9002 26.0988C16.9002 26.0988 16.9002 26.0988 16.9002 26.0988C16.9002 26.0988 16.9002 26.0988 16.9002 26.0988C16.9002 26.0988 16.9002 26.0988 16.9002 26.0988C16.9002 26.0988 16.9002 26.0988 16.9002 26.0988C16.9002 26.0988 16.9002 26.0988 16.9002 26.0988C16.9002 26.0988 16.9002 26.0988 16.9002 26.0988C16.9003 26.0988 16.9003 26.0988 16.9003 26.0988C16.9003 26.0988 16.9003 26.0988 16.9003 26.0988C16.9003 26.0988 16.9003 26.0988 16.9003 26.0988C16.9003 26.0988 16.9003 26.0988 16.9003 26.0988C16.9003 26.0988 16.9003 26.0988 16.9003 26.0988C16.9003 26.0988 16.9003 26.0988 16.9003 26.0988C16.9003 26.0988 16.9003 26.0988 16.9003 26.0988C16.9003 26.0988 16.9003 26.0988 16.9004 26.0988C16.9004 26.0988 16.9004 26.0988 16.9004 26.0988C16.9004 26.0988 16.9004 26.0988 16.9004 26.0988C16.9004 26.0988 16.9004 26.0988 16.9004 26.0988C16.9004 26.0988 16.9004 26.0988 16.9004 26.0988C16.9004 26.0988 16.9004 26.0988 16.9004 26.0988C16.9004 26.0988 16.9004 26.0988 16.9004 26.0988C16.9004 26.0988 16.9004 26.0988 16.9004 26.0988C16.9004 26.0988 16.9005 26.0988 16.9005 26.0988C16.9005 26.0988 16.9005 26.0988 16.9005 26.0988C16.9005 26.0988 16.9005 26.0988 16.9005 26.0988C16.9005 26.0988 16.9005 26.0988 16.9005 26.0988C16.9005 26.0988 16.9005 26.0988 16.9005 26.0988C16.9005 26.0988 16.9005 26.0988 16.9005 26.0988C16.9005 26.0988 16.9005 26.0988 16.9005 26.0988C16.9005 26.0988 16.9005 26.0988 16.9005 26.0988C16.9006 26.0988 16.9006 26.0988 16.9006 26.0988C16.9006 26.0988 16.9006 26.0988 16.9006 26.0988C16.9006 26.0988 16.9006 26.0988 16.9006 26.0988C16.9006 26.0988 16.9006 26.0988 16.9006 26.0988C16.9006 26.0988 16.9006 26.0988 16.9006 26.0988C16.9006 26.0988 16.9006 26.0988 16.9006 26.0988C16.9006 26.0988 16.9006 26.0988 16.9006 26.0988C16.9006 26.0988 16.9006 26.0988 16.9007 26.0988C16.9007 26.0988 16.9007 26.0988 16.9007 26.0988C16.9007 26.0988 16.9007 26.0988 16.9007 26.0988C16.9007 26.0988 16.9007 26.0988 16.9007 26.0988C16.9007 26.0988 16.9007 26.0988 16.9007 26.0988C16.9007 26.0988 16.9007 26.0988 16.9007 26.0988C16.9007 26.0988 16.9007 26.0988 16.9007 26.0988C16.9007 26.0988 16.9007 26.0988 16.9007 26.0988C16.9007 26.0988 16.9008 26.0988 16.9008 26.0988C16.9008 26.0988 16.9008 26.0988 16.9008 26.0988C16.9008 26.0988 16.9008 26.0988 16.9008 26.0988C16.9008 26.0988 16.9008 26.0988 16.9008 26.0988C16.9008 26.0988 16.9008 26.0988 16.9008 26.0988C16.9008 26.0988 16.9008 26.0988 16.9008 26.0988C16.9008 26.0988 16.9008 26.0988 16.9008 26.0988C16.9008 26.0988 16.9008 26.0988 16.9008 26.0988C16.9009 26.0988 16.9009 26.0988 16.9009 26.0988C16.9009 26.0988 16.9009 26.0988 16.9009 26.0988C16.9009 26.0988 16.9009 26.0988 16.9009 26.0988C16.9009 26.0988 16.9009 26.0988 16.9009 26.0988C16.9009 26.0988 16.9009 26.0988 16.9009 26.0988C16.9009 26.0988 16.9009 26.0988 16.9009 26.0988C16.9009 26.0988 16.9009 26.0988 16.9009 26.0988C16.9009 26.0988 16.9009 26.0988 16.901 26.0988C16.901 26.0988 16.901 26.0988 16.901 26.0988C16.901 26.0988 16.901 26.0988 16.901 26.0988C16.901 26.0988 16.901 26.0988 16.901 26.0988C16.901 26.0988 16.901 26.0988 16.901 26.0988C16.901 26.0988 16.901 26.0988 16.901 26.0988C16.901 26.0988 16.901 26.0988 16.901 26.0988C16.901 26.0988 16.901 26.0988 16.901 26.0988C16.901 26.0988 16.9011 26.0988 16.9011 26.0988C16.9011 26.0988 16.9011 26.0988 16.9011 26.0988C16.9011 26.0988 16.9011 26.0988 16.9011 26.0988C16.9011 26.0988 16.9011 26.0988 16.9011 26.0988C16.9011 26.0988 16.9011 26.0988 16.9011 26.0988C16.9011 26.0988 16.9011 26.0988 16.9011 26.0988C16.9011 26.0988 16.9011 26.0988 16.9011 26.0988C16.9011 26.0988 16.9011 26.0988 16.9012 26.0988C16.9012 26.0988 16.9012 26.0988 16.9012 26.0988C16.9012 26.0988 16.9012 26.0988 16.9012 26.0988C16.9012 26.0988 16.9012 26.0988 16.9012 26.0988C16.9012 26.0988 16.9012 26.0988 16.9012 26.0988C16.9012 26.0988 16.9012 26.0988 16.9012 26.0988C16.9012 26.0988 16.9012 26.0988 16.9012 26.0988C16.9012 26.0988 16.9012 26.0988 16.9012 26.0988C16.9012 26.0988 16.9013 26.0988 16.9013 26.0988C16.9013 26.0988 16.9013 26.0988 16.9013 26.0988C16.9013 26.0988 16.9013 26.0988 16.9013 26.0988C16.9013 26.0988 16.9013 26.0988 16.9013 26.0988C16.9013 26.0988 16.9013 26.0988 16.9013 26.0988C16.9013 26.0988 16.9013 26.0988 16.9013 26.0988C16.9013 26.0988 16.9013 26.0988 16.9013 26.0988C16.9013 26.0988 16.9013 26.0988 16.9013 26.0988C16.9014 26.0988 16.9014 26.0988 16.9014 26.0988C16.9014 26.0988 16.9014 26.0988 16.9014 26.0988C16.9014 26.0988 16.9014 26.0988 16.9014 26.0988C16.9014 26.0988 16.9014 26.0988 16.9014 26.0988C16.9014 26.0988 16.9014 26.0988 16.9014 26.0988C16.9014 26.0988 16.9014 26.0988 16.9014 26.0988C16.9014 26.0988 16.9014 26.0988 16.9014 26.0988C16.9014 26.0988 16.9015 26.0988 16.9015 26.0988C16.9015 26.0988 16.9015 26.0988 16.9015 26.0988C16.9015 26.0988 16.9015 26.0988 16.9015 26.0988C16.9015 26.0988 16.9015 26.0988 16.9015 26.0988C16.9015 26.0988 16.9015 26.0988 16.9015 26.0988C16.9015 26.0988 16.9015 26.0988 16.9015 26.0988C16.9015 26.0988 16.9015 26.0988 16.9015 26.0988C16.9015 26.0988 16.9015 26.0988 16.9015 26.0988C16.9016 26.0988 16.9016 26.0988 16.9016 26.0988C16.9016 26.0988 16.9016 26.0988 16.9016 26.0988C16.9016 26.0988 16.9016 26.0988 16.9016 26.0988C16.9016 26.0988 16.9016 26.0988 16.9016 26.0988C16.9016 26.0988 16.9016 26.0988 16.9016 26.0988C16.9016 26.0988 16.9016 26.0988 16.9016 26.0988C16.9016 26.0988 16.9016 26.0988 16.9016 26.0988C16.9016 26.0988 16.9016 26.0988 16.9017 26.0988C16.9017 26.0988 16.9017 26.0988 16.9017 26.0988C16.9017 26.0988 16.9017 26.0988 16.9017 26.0988C16.9017 26.0988 16.9017 26.0988 16.9017 26.0988C16.9017 26.0988 16.9017 26.0988 16.9017 26.0988C16.9017 26.0988 16.9017 26.0988 16.9017 26.0988C16.9017 26.0988 16.9017 26.0988 16.9017 26.0988C16.9017 26.0988 16.9017 26.0988 16.9017 26.0988C16.9018 26.0988 16.9018 26.0988 16.9018 26.0988C16.9018 26.0988 16.9018 26.0988 16.9018 26.0988C16.9018 26.0988 16.9018 26.0988 16.9018 26.0988C16.9018 26.0988 16.9018 26.0988 16.9018 26.0988C16.9018 26.0988 16.9018 26.0988 16.9018 26.0988C16.9018 26.0988 16.9018 26.0988 16.9018 26.0988C16.9018 26.0988 16.9018 26.0988 16.9018 26.0988C16.9018 26.0988 16.9018 26.0988 16.9019 26.0988C16.9019 26.0988 16.9019 26.0988 16.9019 26.0988C16.9019 26.0988 16.9019 26.0988 16.9019 26.0988C16.9019 26.0988 16.9019 26.0988 16.9019 26.0988C16.9019 26.0988 16.9019 26.0988 16.9019 26.0988C16.9019 26.0988 16.9019 26.0988 16.9019 26.0988C16.9019 26.0988 16.9019 26.0988 16.9019 26.0988C16.9019 26.0988 16.9019 26.0988 16.9019 26.0988C16.902 26.0988 16.902 26.0988 16.902 26.0988C16.902 26.0988 16.902 26.0988 16.902 26.0988C16.902 26.0988 16.902 26.0988 16.902 26.0988C16.902 26.0988 16.902 26.0988 16.902 26.0988C16.902 26.0988 16.902 26.0988 16.902 26.0988C16.902 26.0988 16.902 26.0988 16.902 26.0988C16.902 26.0988 16.902 26.0988 16.902 26.0988C16.902 26.0988 16.9021 26.0988 16.9021 26.0988C16.9021 26.0988 16.9021 26.0988 16.9021 26.0988C16.9021 26.0988 16.9021 26.0988 16.9021 26.0988C16.9021 26.0988 16.9021 26.0988 16.9021 26.0988C16.9021 26.0988 16.9021 26.0988 16.9021 26.0988C16.9021 26.0988 16.9021 26.0988 16.9021 26.0988C16.9021 26.0988 16.9021 26.0988 16.9021 26.0988C16.9021 26.0988 16.9021 26.0988 16.9021 26.0988C16.9022 26.0988 16.9022 26.0988 16.9022 26.0988C16.9022 26.0988 16.9022 26.0988 16.9022 26.0988C16.9022 26.0988 16.9022 26.0988 16.9022 26.0988C16.9022 26.0988 16.9022 26.0988 16.9022 26.0988C16.9022 26.0988 16.9022 26.0988 16.9022 26.0988C16.9022 26.0988 16.9022 26.0988 16.9022 26.0988C16.9022 26.0988 16.9022 26.0988 16.9022 26.0988C16.9022 26.0988 16.9023 26.0988 16.9023 26.0988C16.9023 26.0988 16.9023 26.0988 16.9023 26.0988C16.9023 26.0988 16.9023 26.0988 16.9023 26.0988C16.9023 26.0988 16.9023 26.0988 16.9023 26.0988C16.9023 26.0988 16.9023 26.0988 16.9023 26.0988C16.9023 26.0988 16.9023 26.0988 16.9023 26.0988C16.9023 26.0988 16.9023 26.0988 16.9023 26.0988C16.9023 26.0988 16.9023 26.0988 16.9024 26.0988C16.9024 26.0988 16.9024 26.0988 16.9024 26.0988C16.9024 26.0988 16.9024 26.0988 16.9024 26.0988C16.9024 26.0988 16.9024 26.0988 16.9024 26.0988C16.9024 26.0988 16.9024 26.0988 16.9024 26.0988C16.9024 26.0988 16.9024 26.0988 16.9024 26.0988C16.9024 26.0988 16.9024 26.0988 16.9024 26.0988C16.9024 26.0988 16.9024 26.0988 16.9024 26.0988C16.9025 26.0988 16.9025 26.0988 16.9025 26.0988C16.9025 26.0988 16.9025 26.0988 16.9025 26.0988C16.9025 26.0988 16.9025 26.0988 16.9025 26.0988C16.9025 26.0988 16.9025 26.0988 16.9025 26.0988C16.9025 26.0988 16.9025 26.0988 16.9025 26.0988C16.9025 26.0988 16.9025 26.0988 16.9025 26.0988C16.9025 26.0988 16.9025 26.0988 16.9025 26.0988C16.9025 26.0988 16.9025 26.0988 16.9026 26.0988C16.9026 26.0988 16.9026 26.0988 16.9026 26.0988C16.9026 26.0988 16.9026 26.0988 16.9026 26.0988C16.9026 26.0988 16.9026 26.0988 16.9026 26.0988C16.9026 26.0988 16.9026 26.0988 16.9026 26.0988C16.9026 26.0988 16.9026 26.0988 16.9026 26.0988V18.0988C16.9026 18.0988 16.9026 18.0988 16.9026 18.0988C16.9026 18.0988 16.9026 18.0988 16.9026 18.0988C16.9026 18.0988 16.9026 18.0988 16.9026 18.0988C16.9026 18.0988 16.9026 18.0988 16.9026 18.0988C16.9026 18.0988 16.9026 18.0988 16.9026 18.0988C16.9025 18.0988 16.9025 18.0988 16.9025 18.0988C16.9025 18.0988 16.9025 18.0988 16.9025 18.0988C16.9025 18.0988 16.9025 18.0988 16.9025 18.0988C16.9025 18.0988 16.9025 18.0988 16.9025 18.0988C16.9025 18.0988 16.9025 18.0988 16.9025 18.0988C16.9025 18.0988 16.9025 18.0988 16.9025 18.0988C16.9025 18.0988 16.9025 18.0988 16.9025 18.0988C16.9025 18.0988 16.9025 18.0988 16.9024 18.0988C16.9024 18.0988 16.9024 18.0988 16.9024 18.0988C16.9024 18.0988 16.9024 18.0988 16.9024 18.0988C16.9024 18.0988 16.9024 18.0988 16.9024 18.0988C16.9024 18.0988 16.9024 18.0988 16.9024 18.0988C16.9024 18.0988 16.9024 18.0988 16.9024 18.0988C16.9024 18.0988 16.9024 18.0988 16.9024 18.0988C16.9024 18.0988 16.9024 18.0988 16.9024 18.0988C16.9023 18.0988 16.9023 18.0988 16.9023 18.0988C16.9023 18.0988 16.9023 18.0988 16.9023 18.0988C16.9023 18.0988 16.9023 18.0988 16.9023 18.0988C16.9023 18.0988 16.9023 18.0988 16.9023 18.0988C16.9023 18.0988 16.9023 18.0988 16.9023 18.0988C16.9023 18.0988 16.9023 18.0988 16.9023 18.0988C16.9023 18.0988 16.9023 18.0988 16.9023 18.0988C16.9023 18.0988 16.9022 18.0988 16.9022 18.0988C16.9022 18.0988 16.9022 18.0988 16.9022 18.0988C16.9022 18.0988 16.9022 18.0988 16.9022 18.0988C16.9022 18.0988 16.9022 18.0988 16.9022 18.0988C16.9022 18.0988 16.9022 18.0988 16.9022 18.0988C16.9022 18.0988 16.9022 18.0988 16.9022 18.0988C16.9022 18.0988 16.9022 18.0988 16.9022 18.0988C16.9022 18.0988 16.9022 18.0988 16.9021 18.0988C16.9021 18.0988 16.9021 18.0988 16.9021 18.0988C16.9021 18.0988 16.9021 18.0988 16.9021 18.0988C16.9021 18.0988 16.9021 18.0988 16.9021 18.0988C16.9021 18.0988 16.9021 18.0988 16.9021 18.0988C16.9021 18.0988 16.9021 18.0988 16.9021 18.0988C16.9021 18.0988 16.9021 18.0988 16.9021 18.0988C16.9021 18.0988 16.9021 18.0988 16.9021 18.0988C16.9021 18.0988 16.902 18.0988 16.902 18.0988C16.902 18.0988 16.902 18.0988 16.902 18.0988C16.902 18.0988 16.902 18.0988 16.902 18.0988C16.902 18.0988 16.902 18.0988 16.902 18.0988C16.902 18.0988 16.902 18.0988 16.902 18.0988C16.902 18.0988 16.902 18.0988 16.902 18.0988C16.902 18.0988 16.902 18.0988 16.902 18.0988C16.902 18.0988 16.902 18.0988 16.9019 18.0988C16.9019 18.0988 16.9019 18.0988 16.9019 18.0988C16.9019 18.0988 16.9019 18.0988 16.9019 18.0988C16.9019 18.0988 16.9019 18.0988 16.9019 18.0988C16.9019 18.0988 16.9019 18.0988 16.9019 18.0988C16.9019 18.0988 16.9019 18.0988 16.9019 18.0988C16.9019 18.0988 16.9019 18.0988 16.9019 18.0988C16.9019 18.0988 16.9019 18.0988 16.9019 18.0988C16.9018 18.0988 16.9018 18.0988 16.9018 18.0988C16.9018 18.0988 16.9018 18.0988 16.9018 18.0988C16.9018 18.0988 16.9018 18.0988 16.9018 18.0988C16.9018 18.0988 16.9018 18.0988 16.9018 18.0988C16.9018 18.0988 16.9018 18.0988 16.9018 18.0988C16.9018 18.0988 16.9018 18.0988 16.9018 18.0988C16.9018 18.0988 16.9018 18.0988 16.9018 18.0988C16.9018 18.0988 16.9018 18.0988 16.9017 18.0988C16.9017 18.0988 16.9017 18.0988 16.9017 18.0988C16.9017 18.0988 16.9017 18.0988 16.9017 18.0988C16.9017 18.0988 16.9017 18.0988 16.9017 18.0988C16.9017 18.0988 16.9017 18.0988 16.9017 18.0988C16.9017 18.0988 16.9017 18.0988 16.9017 18.0988C16.9017 18.0988 16.9017 18.0988 16.9017 18.0988C16.9017 18.0988 16.9017 18.0988 16.9017 18.0988C16.9016 18.0988 16.9016 18.0988 16.9016 18.0988C16.9016 18.0988 16.9016 18.0988 16.9016 18.0988C16.9016 18.0988 16.9016 18.0988 16.9016 18.0988C16.9016 18.0988 16.9016 18.0988 16.9016 18.0988C16.9016 18.0988 16.9016 18.0988 16.9016 18.0988C16.9016 18.0988 16.9016 18.0988 16.9016 18.0988C16.9016 18.0988 16.9016 18.0988 16.9016 18.0988C16.9016 18.0988 16.9016 18.0988 16.9015 18.0988C16.9015 18.0988 16.9015 18.0988 16.9015 18.0988C16.9015 18.0988 16.9015 18.0988 16.9015 18.0988C16.9015 18.0988 16.9015 18.0988 16.9015 18.0988C16.9015 18.0988 16.9015 18.0988 16.9015 18.0988C16.9015 18.0988 16.9015 18.0988 16.9015 18.0988C16.9015 18.0988 16.9015 18.0988 16.9015 18.0988C16.9015 18.0988 16.9015 18.0988 16.9015 18.0988C16.9015 18.0988 16.9014 18.0988 16.9014 18.0988C16.9014 18.0988 16.9014 18.0988 16.9014 18.0988C16.9014 18.0988 16.9014 18.0988 16.9014 18.0988C16.9014 18.0988 16.9014 18.0988 16.9014 18.0988C16.9014 18.0988 16.9014 18.0988 16.9014 18.0988C16.9014 18.0988 16.9014 18.0988 16.9014 18.0988C16.9014 18.0988 16.9014 18.0988 16.9014 18.0988C16.9014 18.0988 16.9014 18.0988 16.9013 18.0988C16.9013 18.0988 16.9013 18.0988 16.9013 18.0988C16.9013 18.0988 16.9013 18.0988 16.9013 18.0988C16.9013 18.0988 16.9013 18.0988 16.9013 18.0988C16.9013 18.0988 16.9013 18.0988 16.9013 18.0988C16.9013 18.0988 16.9013 18.0988 16.9013 18.0988C16.9013 18.0988 16.9013 18.0988 16.9013 18.0988C16.9013 18.0988 16.9013 18.0988 16.9013 18.0988C16.9013 18.0988 16.9012 18.0988 16.9012 18.0988C16.9012 18.0988 16.9012 18.0988 16.9012 18.0988C16.9012 18.0988 16.9012 18.0988 16.9012 18.0988C16.9012 18.0988 16.9012 18.0988 16.9012 18.0988C16.9012 18.0988 16.9012 18.0988 16.9012 18.0988C16.9012 18.0988 16.9012 18.0988 16.9012 18.0988C16.9012 18.0988 16.9012 18.0988 16.9012 18.0988C16.9012 18.0988 16.9012 18.0988 16.9012 18.0988C16.9011 18.0988 16.9011 18.0988 16.9011 18.0988C16.9011 18.0988 16.9011 18.0988 16.9011 18.0988C16.9011 18.0988 16.9011 18.0988 16.9011 18.0988C16.9011 18.0988 16.9011 18.0988 16.9011 18.0988C16.9011 18.0988 16.9011 18.0988 16.9011 18.0988C16.9011 18.0988 16.9011 18.0988 16.9011 18.0988C16.9011 18.0988 16.9011 18.0988 16.9011 18.0988C16.9011 18.0988 16.901 18.0988 16.901 18.0988C16.901 18.0988 16.901 18.0988 16.901 18.0988C16.901 18.0988 16.901 18.0988 16.901 18.0988C16.901 18.0988 16.901 18.0988 16.901 18.0988C16.901 18.0988 16.901 18.0988 16.901 18.0988C16.901 18.0988 16.901 18.0988 16.901 18.0988C16.901 18.0988 16.901 18.0988 16.901 18.0988C16.901 18.0988 16.901 18.0988 16.901 18.0988C16.9009 18.0988 16.9009 18.0988 16.9009 18.0988C16.9009 18.0988 16.9009 18.0988 16.9009 18.0988C16.9009 18.0988 16.9009 18.0988 16.9009 18.0988C16.9009 18.0988 16.9009 18.0988 16.9009 18.0988C16.9009 18.0988 16.9009 18.0988 16.9009 18.0988C16.9009 18.0988 16.9009 18.0988 16.9009 18.0988C16.9009 18.0988 16.9009 18.0988 16.9009 18.0988C16.9009 18.0988 16.9009 18.0988 16.9008 18.0988C16.9008 18.0988 16.9008 18.0988 16.9008 18.0988C16.9008 18.0988 16.9008 18.0988 16.9008 18.0988C16.9008 18.0988 16.9008 18.0988 16.9008 18.0988C16.9008 18.0988 16.9008 18.0988 16.9008 18.0988C16.9008 18.0988 16.9008 18.0988 16.9008 18.0988C16.9008 18.0988 16.9008 18.0988 16.9008 18.0988C16.9008 18.0988 16.9008 18.0988 16.9008 18.0988C16.9008 18.0988 16.9007 18.0988 16.9007 18.0988C16.9007 18.0988 16.9007 18.0988 16.9007 18.0988C16.9007 18.0988 16.9007 18.0988 16.9007 18.0988C16.9007 18.0988 16.9007 18.0988 16.9007 18.0988C16.9007 18.0988 16.9007 18.0988 16.9007 18.0988C16.9007 18.0988 16.9007 18.0988 16.9007 18.0988C16.9007 18.0988 16.9007 18.0988 16.9007 18.0988C16.9007 18.0988 16.9007 18.0988 16.9007 18.0988C16.9006 18.0988 16.9006 18.0988 16.9006 18.0988C16.9006 18.0988 16.9006 18.0988 16.9006 18.0988C16.9006 18.0988 16.9006 18.0988 16.9006 18.0988C16.9006 18.0988 16.9006 18.0988 16.9006 18.0988C16.9006 18.0988 16.9006 18.0988 16.9006 18.0988C16.9006 18.0988 16.9006 18.0988 16.9006 18.0988C16.9006 18.0988 16.9006 18.0988 16.9006 18.0988C16.9006 18.0988 16.9006 18.0988 16.9005 18.0988C16.9005 18.0988 16.9005 18.0988 16.9005 18.0988C16.9005 18.0988 16.9005 18.0988 16.9005 18.0988C16.9005 18.0988 16.9005 18.0988 16.9005 18.0988C16.9005 18.0988 16.9005 18.0988 16.9005 18.0988C16.9005 18.0988 16.9005 18.0988 16.9005 18.0988C16.9005 18.0988 16.9005 18.0988 16.9005 18.0988C16.9005 18.0988 16.9005 18.0988 16.9005 18.0988C16.9005 18.0988 16.9004 18.0988 16.9004 18.0988C16.9004 18.0988 16.9004 18.0988 16.9004 18.0988C16.9004 18.0988 16.9004 18.0988 16.9004 18.0988C16.9004 18.0988 16.9004 18.0988 16.9004 18.0988C16.9004 18.0988 16.9004 18.0988 16.9004 18.0988C16.9004 18.0988 16.9004 18.0988 16.9004 18.0988C16.9004 18.0988 16.9004 18.0988 16.9004 18.0988C16.9004 18.0988 16.9004 18.0988 16.9004 18.0988C16.9003 18.0988 16.9003 18.0988 16.9003 18.0988C16.9003 18.0988 16.9003 18.0988 16.9003 18.0988C16.9003 18.0988 16.9003 18.0988 16.9003 18.0988C16.9003 18.0988 16.9003 18.0988 16.9003 18.0988C16.9003 18.0988 16.9003 18.0988 16.9003 18.0988C16.9003 18.0988 16.9003 18.0988 16.9003 18.0988C16.9003 18.0988 16.9003 18.0988 16.9003 18.0988C16.9003 18.0988 16.9003 18.0988 16.9002 18.0988C16.9002 18.0988 16.9002 18.0988 16.9002 18.0988C16.9002 18.0988 16.9002 18.0988 16.9002 18.0988C16.9002 18.0988 16.9002 18.0988 16.9002 18.0988C16.9002 18.0988 16.9002 18.0988 16.9002 18.0988C16.9002 18.0988 16.9002 18.0988 16.9002 18.0988C16.9002 18.0988 16.9002 18.0988 16.9002 18.0988C16.9002 18.0988 16.9002 18.0988 16.9002 18.0988C16.9002 18.0988 16.9001 18.0988 16.9001 18.0988C16.9001 18.0988 16.9001 18.0988 16.9001 18.0988C16.9001 18.0988 16.9001 18.0988 16.9001 18.0988C16.9001 18.0988 16.9001 18.0988 16.9001 18.0988C16.9001 18.0988 16.9001 18.0988 16.9001 18.0988C16.9001 18.0988 16.9001 18.0988 16.9001 18.0988C16.9001 18.0988 16.9001 18.0988 16.9001 18.0988C16.9001 18.0988 16.9001 18.0988 16.9001 18.0988C16.9 18.0988 16.9 18.0988 16.9 18.0988C16.9 18.0988 16.9 18.0988 16.9 18.0988C16.9 18.0988 16.9 18.0988 16.9 18.0988C16.9 18.0988 16.9 18.0988 16.9 18.0988C16.9 18.0988 16.9 18.0988 16.9 18.0988C16.9 18.0988 16.9 18.0988 16.9 18.0988C16.9 18.0988 16.9 18.0988 16.9 18.0988C16.9 18.0988 16.9 18.0988 16.8999 18.0988C16.8999 18.0988 16.8999 18.0988 16.8999 18.0988C16.8999 18.0988 16.8999 18.0988 16.8999 18.0988C16.8999 18.0988 16.8999 18.0988 16.8999 18.0988C16.8999 18.0988 16.8999 18.0988 16.8999 18.0988C16.8999 18.0988 16.8999 18.0988 16.8999 18.0988C16.8999 18.0988 16.8999 18.0988 16.8999 18.0988C16.8999 18.0988 16.8999 18.0988 16.8999 18.0988C16.8999 18.0988 16.8998 18.0988 16.8998 18.0988C16.8998 18.0988 16.8998 18.0988 16.8998 18.0988C16.8998 18.0988 16.8998 18.0988 16.8998 18.0988C16.8998 18.0988 16.8998 18.0988 16.8998 18.0988C16.8998 18.0988 16.8998 18.0988 16.8998 18.0988C16.8998 18.0988 16.8998 18.0988 16.8998 18.0988C16.8998 18.0988 16.8998 18.0988 16.8998 18.0988C16.8998 18.0988 16.8998 18.0988 16.8998 18.0988C16.8997 18.0988 16.8997 18.0988 16.8997 18.0988C16.8997 18.0988 16.8997 18.0988 16.8997 18.0988C16.8997 18.0988 16.8997 18.0988 16.8997 18.0988C16.8997 18.0988 16.8997 18.0988 16.8997 18.0988C16.8997 18.0988 16.8997 18.0988 16.8997 18.0988C16.8997 18.0988 16.8997 18.0988 16.8997 18.0988C16.8997 18.0988 16.8997 18.0988 16.8997 18.0988C16.8997 18.0988 16.8997 18.0988 16.8996 18.0988C16.8996 18.0988 16.8996 18.0988 16.8996 18.0988C16.8996 18.0988 16.8996 18.0988 16.8996 18.0988C16.8996 18.0988 16.8996 18.0988 16.8996 18.0988C16.8996 18.0988 16.8996 18.0988 16.8996 18.0988C16.8996 18.0988 16.8996 18.0988 16.8996 18.0988C16.8996 18.0988 16.8996 18.0988 16.8996 18.0988C16.8996 18.0988 16.8996 18.0988 16.8996 18.0988C16.8996 18.0988 16.8995 18.0988 16.8995 18.0988C16.8995 18.0988 16.8995 18.0988 16.8995 18.0988C16.8995 18.0988 16.8995 18.0988 16.8995 18.0988C16.8995 18.0988 16.8995 18.0988 16.8995 18.0988C16.8995 18.0988 16.8995 18.0988 16.8995 18.0988C16.8995 18.0988 16.8995 18.0988 16.8995 18.0988C16.8995 18.0988 16.8995 18.0988 16.8995 18.0988C16.8995 18.0988 16.8995 18.0988 16.8995 18.0988C16.8994 18.0988 16.8994 18.0988 16.8994 18.0988C16.8994 18.0988 16.8994 18.0988 16.8994 18.0988C16.8994 18.0988 16.8994 18.0988 16.8994 18.0988C16.8994 18.0988 16.8994 18.0988 16.8994 18.0988C16.8994 18.0988 16.8994 18.0988 16.8994 18.0988C16.8994 18.0988 16.8994 18.0988 16.8994 18.0988C16.8994 18.0988 16.8994 18.0988 16.8994 18.0988C16.8994 18.0988 16.8994 18.0988 16.8993 18.0988C16.8993 18.0988 16.8993 18.0988 16.8993 18.0988C16.8993 18.0988 16.8993 18.0988 16.8993 18.0988C16.8993 18.0988 16.8993 18.0988 16.8993 18.0988C16.8993 18.0988 16.8993 18.0988 16.8993 18.0988C16.8993 18.0988 16.8993 18.0988 16.8993 18.0988C16.8993 18.0988 16.8993 18.0988 16.8993 18.0988C16.8993 18.0988 16.8993 18.0988 16.8993 18.0988C16.8993 18.0988 16.8992 18.0988 16.8992 18.0988C16.8992 18.0988 16.8992 18.0988 16.8992 18.0988C16.8992 18.0988 16.8992 18.0988 16.8992 18.0988C16.8992 18.0988 16.8992 18.0988 16.8992 18.0988C16.8992 18.0988 16.8992 18.0988 16.8992 18.0988C16.8992 18.0988 16.8992 18.0988 16.8992 18.0988C16.8992 18.0988 16.8992 18.0988 16.8992 18.0988C16.8992 18.0988 16.8992 18.0988 16.8992 18.0988C16.8991 18.0988 16.8991 18.0988 16.8991 18.0988C16.8991 18.0988 16.8991 18.0988 16.8991 18.0988C16.8991 18.0988 16.8991 18.0988 16.8991 18.0988C16.8991 18.0988 16.8991 18.0988 16.8991 18.0988C16.8991 18.0988 16.8991 18.0988 16.8991 18.0988C16.8991 18.0988 16.8991 18.0988 16.8991 18.0988C16.8991 18.0988 16.8991 18.0988 16.8991 18.0988C16.8991 18.0988 16.8991 18.0988 16.899 18.0988C16.899 18.0988 16.899 18.0988 16.899 18.0988C16.899 18.0988 16.899 18.0988 16.899 18.0988C16.899 18.0988 16.899 18.0988 16.899 18.0988C16.899 18.0988 16.899 18.0988 16.899 18.0988C16.899 18.0988 16.899 18.0988 16.899 18.0988C16.899 18.0988 16.899 18.0988 16.899 18.0988C16.899 18.0988 16.899 18.0988 16.899 18.0988C16.899 18.0988 16.899 18.0988 16.8989 18.0988C16.8989 18.0988 16.8989 18.0988 16.8989 18.0988C16.8989 18.0988 16.8989 18.0988 16.8989 18.0988C16.8989 18.0988 16.8989 18.0988 16.8989 18.0988C16.8989 18.0988 16.8989 18.0988 16.8989 18.0988C16.8989 18.0988 16.8989 18.0988 16.8989 18.0988C16.8989 18.0988 16.8989 18.0988 16.8989 18.0988C16.8989 18.0988 16.8989 18.0988 16.8989 18.0988C16.8989 18.0988 16.8988 18.0988 16.8988 18.0988C16.8988 18.0988 16.8988 18.0988 16.8988 18.0988C16.8988 18.0988 16.8988 18.0988 16.8988 18.0988C16.8988 18.0988 16.8988 18.0988 16.8988 18.0988C16.8988 18.0988 16.8988 18.0988 16.8988 18.0988C16.8988 18.0988 16.8988 18.0988 16.8988 18.0988C16.8988 18.0988 16.8988 18.0988 16.8988 18.0988C16.8988 18.0988 16.8988 18.0988 16.8988 18.0988C16.8987 18.0988 16.8987 18.0988 16.8987 18.0988C16.8987 18.0988 16.8987 18.0988 16.8987 18.0988C16.8987 18.0988 16.8987 18.0988 16.8987 18.0988C16.8987 18.0988 16.8987 18.0988 16.8987 18.0988C16.8987 18.0988 16.8987 18.0988 16.8987 18.0988C16.8987 18.0988 16.8987 18.0988 16.8987 18.0988C16.8987 18.0988 16.8987 18.0988 16.8987 18.0988C16.8987 18.0988 16.8987 18.0988 16.8986 18.0988C16.8986 18.0988 16.8986 18.0988 16.8986 18.0988C16.8986 18.0988 16.8986 18.0988 16.8986 18.0988C16.8986 18.0988 16.8986 18.0988 16.8986 18.0988C16.8986 18.0988 16.8986 18.0988 16.8986 18.0988C16.8986 18.0988 16.8986 18.0988 16.8986 18.0988C16.8986 18.0988 16.8986 18.0988 16.8986 18.0988C16.8986 18.0988 16.8986 18.0988 16.8986 18.0988C16.8986 18.0988 16.8985 18.0988 16.8985 18.0988C16.8985 18.0988 16.8985 18.0988 16.8985 18.0988C16.8985 18.0988 16.8985 18.0988 16.8985 18.0988C16.8985 18.0988 16.8985 18.0988 16.8985 18.0988C16.8985 18.0988 16.8985 18.0988 16.8985 18.0988C16.8985 18.0988 16.8985 18.0988 16.8985 18.0988C16.8985 18.0988 16.8985 18.0988 16.8985 18.0988C16.8985 18.0988 16.8985 18.0988 16.8985 18.0988C16.8984 18.0988 16.8984 18.0988 16.8984 18.0988C16.8984 18.0988 16.8984 18.0988 16.8984 18.0988C16.8984 18.0988 16.8984 18.0988 16.8984 18.0988C16.8984 18.0988 16.8984 18.0988 16.8984 18.0988C16.8984 18.0988 16.8984 18.0988 16.8984 18.0988C16.8984 18.0988 16.8984 18.0988 16.8984 18.0988C16.8984 18.0988 16.8984 18.0988 16.8984 18.0988C16.8984 18.0988 16.8984 18.0988 16.8983 18.0988C16.8983 18.0988 16.8983 18.0988 16.8983 18.0988C16.8983 18.0988 16.8983 18.0988 16.8983 18.0988C16.8983 18.0988 16.8983 18.0988 16.8983 18.0988C16.8983 18.0988 16.8983 18.0988 16.8983 18.0988C16.8983 18.0988 16.8983 18.0988 16.8983 18.0988C16.8983 18.0988 16.8983 18.0988 16.8983 18.0988C16.8983 18.0988 16.8983 18.0988 16.8983 18.0988C16.8983 18.0988 16.8982 18.0988 16.8982 18.0988C16.8982 18.0988 16.8982 18.0988 16.8982 18.0988C16.8982 18.0988 16.8982 18.0988 16.8982 18.0988C16.8982 18.0988 16.8982 18.0988 16.8982 18.0988C16.8982 18.0988 16.8982 18.0988 16.8982 18.0988C16.8982 18.0988 16.8982 18.0988 16.8982 18.0988C16.8982 18.0988 16.8982 18.0988 16.8982 18.0988C16.8982 18.0988 16.8982 18.0988 16.8982 18.0988C16.8981 18.0988 16.8981 18.0988 16.8981 18.0988C16.8981 18.0988 16.8981 18.0988 16.8981 18.0988C16.8981 18.0988 16.8981 18.0988 16.8981 18.0988C16.8981 18.0988 16.8981 18.0988 16.8981 18.0988C16.8981 18.0988 16.8981 18.0988 16.8981 18.0988C16.8981 18.0988 16.8981 18.0988 16.8981 18.0988C16.8981 18.0988 16.8981 18.0988 16.8981 18.0988C16.8981 18.0988 16.8981 18.0988 16.898 18.0988C16.898 18.0988 16.898 18.0988 16.898 18.0988C16.898 18.0988 16.898 18.0988 16.898 18.0988C16.898 18.0988 16.898 18.0988 16.898 18.0988C16.898 18.0988 16.898 18.0988 16.898 18.0988C16.898 18.0988 16.898 18.0988 16.898 18.0988C16.898 18.0988 16.898 18.0988 16.898 18.0988C16.898 18.0988 16.898 18.0988 16.898 18.0988C16.898 18.0988 16.8979 18.0988 16.8979 18.0988C16.8979 18.0988 16.8979 18.0988 16.8979 18.0988C16.8979 18.0988 16.8979 18.0988 16.8979 18.0988C16.8979 18.0988 16.8979 18.0988 16.8979 18.0988C16.8979 18.0988 16.8979 18.0988 16.8979 18.0988C16.8979 18.0988 16.8979 18.0988 16.8979 18.0988C16.8979 18.0988 16.8979 18.0988 16.8979 18.0988C16.8979 18.0988 16.8979 18.0988 16.8979 18.0988C16.8978 18.0988 16.8978 18.0988 16.8978 18.0988C16.8978 18.0988 16.8978 18.0988 16.8978 18.0988C16.8978 18.0988 16.8978 18.0988 16.8978 18.0988C16.8978 18.0988 16.8978 18.0988 16.8978 18.0988C16.8978 18.0988 16.8978 18.0988 16.8978 18.0988C16.8978 18.0988 16.8978 18.0988 16.8978 18.0988C16.8978 18.0988 16.8978 18.0988 16.8978 18.0988C16.8978 18.0988 16.8978 18.0988 16.8977 18.0988C16.8977 18.0988 16.8977 18.0988 16.8977 18.0988C16.8977 18.0988 16.8977 18.0988 16.8977 18.0988C16.8977 18.0988 16.8977 18.0988 16.8977 18.0988C16.8977 18.0988 16.8977 18.0988 16.8977 18.0988C16.8977 18.0988 16.8977 18.0988 16.8977 18.0988C16.8977 18.0988 16.8977 18.0988 16.8977 18.0988C16.8977 18.0988 16.8977 18.0988 16.8977 18.0988C16.8976 18.0988 16.8976 18.0988 16.8976 18.0988C16.8976 18.0988 16.8976 18.0988 16.8976 18.0988C16.8976 18.0988 16.8976 18.0988 16.8976 18.0988C16.8976 18.0988 16.8976 18.0988 16.8976 18.0988C16.8976 18.0988 16.8976 18.0988 16.8976 18.0988C16.8976 18.0988 16.8976 18.0988 16.8976 18.0988C16.8976 18.0988 16.8976 18.0988 16.8976 18.0988C16.8976 18.0988 16.8976 18.0988 16.8975 18.0988C16.8975 18.0988 16.8975 18.0988 16.8975 18.0988C16.8975 18.0988 16.8975 18.0988 16.8975 18.0988C16.8975 18.0988 16.8975 18.0988 16.8975 18.0988C16.8975 18.0988 16.8975 18.0988 16.8975 18.0988C16.8975 18.0988 16.8975 18.0988 16.8975 18.0988C16.8975 18.0988 16.8975 18.0988 16.8975 18.0988C16.8975 18.0988 16.8975 18.0988 16.8975 18.0988C16.8975 18.0988 16.8974 18.0988 16.8974 18.0988C16.8974 18.0988 16.8974 18.0988 16.8974 18.0988C16.8974 18.0988 16.8974 18.0988 16.8974 18.0988C16.8974 18.0988 16.8974 18.0988 16.8974 18.0988C16.8974 18.0988 16.8974 18.0988 16.8974 18.0988C16.8974 18.0988 16.8974 18.0988 16.8974 18.0988C16.8974 18.0988 16.8974 18.0988 16.8974 18.0988C16.8974 18.0988 16.8974 18.0988 16.8974 18.0988C16.8973 18.0988 16.8973 18.0988 16.8973 18.0988C16.8973 18.0988 16.8973 18.0988 16.8973 18.0988C16.8973 18.0988 16.8973 18.0988 16.8973 18.0988C16.8973 18.0988 16.8973 18.0988 16.8973 18.0988C16.8973 18.0988 16.8973 18.0988 16.8973 18.0988C16.8973 18.0988 16.8973 18.0988 16.8973 18.0988C16.8973 18.0988 16.8973 18.0988 16.8973 18.0988C16.8973 18.0988 16.8973 18.0988 16.8972 18.0988C16.8972 18.0988 16.8972 18.0988 16.8972 18.0988C16.8972 18.0988 16.8972 18.0988 16.8972 18.0988C16.8972 18.0988 16.8972 18.0988 16.8972 18.0988C16.8972 18.0988 16.8972 18.0988 16.8972 18.0988C16.8972 18.0988 16.8972 18.0988 16.8972 18.0988C16.8972 18.0988 16.8972 18.0988 16.8972 18.0988C16.8972 18.0988 16.8972 18.0988 16.8972 18.0988C16.8971 18.0988 16.8971 18.0988 16.8971 18.0988C16.8971 18.0988 16.8971 18.0988 16.8971 18.0988C16.8971 18.0988 16.8971 18.0988 16.8971 18.0988C16.8971 18.0988 16.8971 18.0988 16.8971 18.0988C16.8971 18.0988 16.8971 18.0988 16.8971 18.0988C16.8971 18.0988 16.8971 18.0988 16.8971 18.0988C16.8971 18.0988 16.8971 18.0988 16.8971 18.0988C16.8971 18.0988 16.8971 18.0988 16.897 18.0988C16.897 18.0988 16.897 18.0988 16.897 18.0988C16.897 18.0988 16.897 18.0988 16.897 18.0988C16.897 18.0988 16.897 18.0988 16.897 18.0988C16.897 18.0988 16.897 18.0988 16.897 18.0988C16.897 18.0988 16.897 18.0988 16.897 18.0988C16.897 18.0988 16.897 18.0988 16.897 18.0988C16.897 18.0988 16.897 18.0988 16.897 18.0988C16.897 18.0988 16.8969 18.0988 16.8969 18.0988C16.8969 18.0988 16.8969 18.0988 16.8969 18.0988C16.8969 18.0988 16.8969 18.0988 16.8969 18.0988C16.8969 18.0988 16.8969 18.0988 16.8969 18.0988C16.8969 18.0988 16.8969 18.0988 16.8969 18.0988C16.8969 18.0988 16.8969 18.0988 16.8969 18.0988C16.8969 18.0988 16.8969 18.0988 16.8969 18.0988C16.8969 18.0988 16.8969 18.0988 16.8968 18.0988C16.8968 18.0988 16.8968 18.0988 16.8968 18.0988C16.8968 18.0988 16.8968 18.0988 16.8968 18.0988C16.8968 18.0988 16.8968 18.0988 16.8968 18.0988C16.8968 18.0988 16.8968 18.0988 16.8968 18.0988C16.8968 18.0988 16.8968 18.0988 16.8968 18.0988C16.8968 18.0988 16.8968 18.0988 16.8968 18.0988C16.8968 18.0988 16.8968 18.0988 16.8968 18.0988C16.8968 18.0988 16.8967 18.0988 16.8967 18.0988C16.8967 18.0988 16.8967 18.0988 16.8967 18.0988C16.8967 18.0988 16.8967 18.0988 16.8967 18.0988C16.8967 18.0988 16.8967 18.0988 16.8967 18.0988C16.8967 18.0988 16.8967 18.0988 16.8967 18.0988C16.8967 18.0988 16.8967 18.0988 16.8967 18.0988C16.8967 18.0988 16.8967 18.0988 16.8967 18.0988C16.8967 18.0988 16.8967 18.0988 16.8966 18.0988C16.8966 18.0988 16.8966 18.0988 16.8966 18.0988C16.8966 18.0988 16.8966 18.0988 16.8966 18.0988C16.8966 18.0988 16.8966 18.0988 16.8966 18.0988C16.8966 18.0988 16.8966 18.0988 16.8966 18.0988C16.8966 18.0988 16.8966 18.0988 16.8966 18.0988C16.8966 18.0988 16.8966 18.0988 16.8966 18.0988C16.8966 18.0988 16.8966 18.0988 16.8966 18.0988C16.8966 18.0988 16.8965 18.0988 16.8965 18.0988C16.8965 18.0988 16.8965 18.0988 16.8965 18.0988C16.8965 18.0988 16.8965 18.0988 16.8965 18.0988C16.8965 18.0988 16.8965 18.0988 16.8965 18.0988C16.8965 18.0988 16.8965 18.0988 16.8965 18.0988C16.8965 18.0988 16.8965 18.0988 16.8965 18.0988C16.8965 18.0988 16.8965 18.0988 16.8965 18.0988C16.8965 18.0988 16.8965 18.0988 16.8964 18.0988C16.8964 18.0988 16.8964 18.0988 16.8964 18.0988C16.8964 18.0988 16.8964 18.0988 16.8964 18.0988C16.8964 18.0988 16.8964 18.0988 16.8964 18.0988C16.8964 18.0988 16.8964 18.0988 16.8964 18.0988C16.8964 18.0988 16.8964 18.0988 16.8964 18.0988C16.8964 18.0988 16.8964 18.0988 16.8964 18.0988C16.8964 18.0988 16.8964 18.0988 16.8964 18.0988C16.8963 18.0988 16.8963 18.0988 16.8963 18.0988C16.8963 18.0988 16.8963 18.0988 16.8963 18.0988C16.8963 18.0988 16.8963 18.0988 16.8963 18.0988C16.8963 18.0988 16.8963 18.0988 16.8963 18.0988C16.8963 18.0988 16.8963 18.0988 16.8963 18.0988C16.8963 18.0988 16.8963 18.0988 16.8963 18.0988C16.8963 18.0988 16.8963 18.0988 16.8963 18.0988C16.8963 18.0988 16.8963 18.0988 16.8962 18.0988C16.8962 18.0988 16.8962 18.0988 16.8962 18.0988C16.8962 18.0988 16.8962 18.0988 16.8962 18.0988C16.8962 18.0988 16.8962 18.0988 16.8962 18.0988C16.8962 18.0988 16.8962 18.0988 16.8962 18.0988C16.8962 18.0988 16.8962 18.0988 16.8962 18.0988C16.8962 18.0988 16.8962 18.0988 16.8962 18.0988C16.8962 18.0988 16.8962 18.0988 16.8962 18.0988C16.8961 18.0988 16.8961 18.0988 16.8961 18.0988C16.8961 18.0988 16.8961 18.0988 16.8961 18.0988C16.8961 18.0988 16.8961 18.0988 16.8961 18.0988C16.8961 18.0988 16.8961 18.0988 16.8961 18.0988C16.8961 18.0988 16.8961 18.0988 16.8961 18.0988C16.8961 18.0988 16.8961 18.0988 16.8961 18.0988C16.8961 18.0988 16.8961 18.0988 16.8961 18.0988C16.8961 18.0988 16.896 18.0988 16.896 18.0988C16.896 18.0988 16.896 18.0988 16.896 18.0988C16.896 18.0988 16.896 18.0988 16.896 18.0988C16.896 18.0988 16.896 18.0988 16.896 18.0988C16.896 18.0988 16.896 18.0988 16.896 18.0988C16.896 18.0988 16.896 18.0988 16.896 18.0988C16.896 18.0988 16.896 18.0988 16.896 18.0988C16.896 18.0988 16.896 18.0988 16.8959 18.0988C16.8959 18.0988 16.8959 18.0988 16.8959 18.0988C16.8959 18.0988 16.8959 18.0988 16.8959 18.0988C16.8959 18.0988 16.8959 18.0988 16.8959 18.0988C16.8959 18.0988 16.8959 18.0988 16.8959 18.0988C16.8959 18.0988 16.8959 18.0988 16.8959 18.0988C16.8959 18.0988 16.8959 18.0988 16.8959 18.0988V26.0988ZM16.9026 26.0988C18.232 26.0988 19.5079 25.5794 20.4601 24.6403L14.8424 18.9446C15.3938 18.4007 16.1386 18.0988 16.9026 18.0988V26.0988ZM20.4643 24.6362C21.3357 23.7742 21.7924 22.7007 21.9228 21.6704L13.986 20.6664C14.0585 20.0934 14.3189 19.4624 14.8382 18.9487L20.4643 24.6362ZM15.4015 24.2478C16.2931 24.987 17.4285 25.4175 18.6312 25.4175V17.4175C19.3504 17.4175 20.0083 17.6754 20.5073 18.089L15.4015 24.2478ZM18.6343 25.4175C19.9066 25.4165 21.2003 24.9339 22.1895 23.9578L16.5705 18.2634C17.1447 17.6967 17.8966 17.4181 18.6281 17.4175L18.6343 25.4175ZM22.1917 23.9556C23.3385 22.8222 23.7922 21.3096 23.6727 19.9186L15.7021 20.6031C15.635 19.8217 15.8897 18.9361 16.5683 18.2655L22.1917 23.9556ZM18.7295 24.1445C19.0091 24.2134 19.4444 24.2999 19.9724 24.2999V16.2999C20.3091 16.2999 20.554 16.3547 20.6452 16.3772L18.7295 24.1445ZM19.9724 24.2999C21.1355 24.2999 22.4639 23.897 23.5115 22.8622L17.8891 17.171C18.5525 16.5157 19.351 16.2999 19.9724 16.2999V24.2999ZM23.5108 22.8628C24.4734 21.9123 25.0079 20.6275 25.0158 19.2885L17.016 19.2412C17.0205 18.473 17.3308 17.7223 17.8898 17.1704L23.5108 22.8628ZM25.0158 19.2885C25.0235 17.9929 24.5342 16.6843 23.5595 15.7041L17.8867 21.3449C17.2835 20.7383 17.0117 19.9659 17.016 19.2412L25.0158 19.2885ZM23.8278 16.0023C23.761 15.9202 23.6991 15.8469 23.6552 15.7952C23.6032 15.7339 23.582 15.7092 23.5548 15.6767L17.4181 20.809C17.5821 21.0051 17.5528 20.9658 17.6184 21.0466L23.8278 16.0023ZM22.5663 21.6596L24.0052 20.7837L19.8455 13.9502L18.4066 14.8261L22.5663 21.6596ZM18.1047 18.5512L18.1533 18.7079L25.7946 16.3393L25.746 16.1826L18.1047 18.5512ZM18.1536 18.7089C18.7001 20.4704 20.3297 21.6722 22.1755 21.6722V13.6722C23.8365 13.6722 25.3026 14.7537 25.7943 16.3383L18.1536 18.7089ZM22.1755 21.6722H24.7889V13.6722H22.1755V21.6722ZM24.7889 21.6722C27.1148 21.6722 29 19.787 29 17.4611H21C21 15.3687 22.6965 13.6722 24.7889 13.6722V21.6722ZM29 17.4611V10.2113H21V17.4611H29ZM29 10.2113C29 9.06089 28.5291 7.95578 27.689 7.1579L22.1797 12.9586C21.4237 12.2405 21 11.2461 21 10.2113H29ZM8.66866 13.2502H6.42222V21.2502H8.66866V13.2502ZM10.4222 17.2502V10.4345H2.42222V17.2502H10.4222ZM6.17536 14.4268C7.13089 14.4859 8.24529 14.6508 9.70129 14.979L11.4605 7.17479C9.71733 6.78184 8.16498 6.53458 6.66908 6.44209L6.17536 14.4268ZM6.76001 9.89332L4.84777 16.0666L12.4895 18.4337L14.4018 12.2604L6.76001 9.89332ZM17.5913 16.8714C18.4378 16.0345 19.4542 15.8447 20.156 15.8842C20.8742 15.9247 21.6596 16.2141 22.2892 16.8523L16.5941 22.4707C17.4868 23.3755 18.6329 23.8111 19.706 23.8715C20.7629 23.9311 22.1287 23.6351 23.2156 22.5606L17.5913 16.8714ZM22.2701 16.8331C22.0455 16.6085 21.8319 16.4483 21.6727 16.3411C21.5244 16.2412 21.4003 16.173 21.3821 16.1628C21.3763 16.1596 21.3698 16.156 21.3729 16.1577C21.3734 16.158 21.3808 16.1621 21.3901 16.1673C21.4084 16.1776 21.4499 16.201 21.5019 16.2324C21.6061 16.2954 21.7861 16.4104 21.9904 16.5806L16.8689 22.7264C17.075 22.8981 17.257 23.0145 17.3633 23.0787C17.4163 23.1108 17.4589 23.1348 17.4782 23.1456C17.488 23.1511 17.4959 23.1555 17.497 23.1561C17.5006 23.1581 17.4946 23.1548 17.4894 23.1519C17.4732 23.1428 17.3512 23.0758 17.2049 22.9772C17.0477 22.8714 16.836 22.7127 16.6132 22.4899L22.2701 16.8331ZM22.4472 17.0278C22.5188 17.1101 22.5712 17.1775 22.5959 17.2098C22.6085 17.2262 22.6178 17.2387 22.6196 17.2411C22.6279 17.2523 22.6134 17.2329 22.6111 17.2298C22.5979 17.2122 22.5542 17.1538 22.4961 17.0828C22.4355 17.0088 22.3486 16.9075 22.2369 16.7943L16.5417 22.4126C16.4377 22.3072 16.3579 22.2141 16.3042 22.1484C16.2528 22.0856 16.2155 22.0357 16.2087 22.0266C16.2065 22.0236 16.2049 22.0215 16.2053 22.022C16.2054 22.0221 16.2055 22.0223 16.2057 22.0226C16.2059 22.0228 16.2062 22.0233 16.2066 22.0238C16.2073 22.0247 16.2085 22.0263 16.2099 22.0282C16.2148 22.0348 16.2273 22.0515 16.2431 22.0722C16.2743 22.1129 16.3334 22.1887 16.412 22.2792L22.4472 17.0278ZM22.2351 16.7925L19.9235 14.4521L14.2318 20.074L16.5435 22.4144L22.2351 16.7925ZM19.9133 14.4419C18.2831 12.8033 15.6312 12.7817 13.9759 14.4075L19.5819 20.1148C18.093 21.5773 15.7076 21.5573 14.242 20.0842L19.9133 14.4419ZM13.965 14.4183C12.3099 16.0565 12.304 18.7143 13.9233 20.3629L19.6307 14.7569C21.0866 16.2392 21.082 18.6301 19.5928 20.104L13.965 14.4183ZM13.9312 20.3708L16.2428 22.7112L21.9345 17.0893L19.6228 14.749L13.9312 20.3708ZM16.2455 22.7138C15.6098 22.0714 15.2681 21.2089 15.2735 20.3318L23.2733 20.3807C23.2808 19.1587 22.8078 17.9719 21.9319 17.0867L16.2455 22.7138ZM15.2735 20.3318C15.2788 19.4549 15.6309 18.5964 16.2746 17.9616L21.8918 23.6579C22.7787 22.7832 23.2658 21.6022 23.2733 20.3808L15.2735 20.3318ZM16.2691 17.9671C17.5949 16.6546 19.7194 16.6804 21.016 17.9901L15.3306 23.6183C17.1263 25.4322 20.0669 25.4644 21.8973 23.6524L16.2691 17.9671ZM21.0191 17.9933L20.5071 17.475L14.8156 23.0969L15.3275 23.6152L21.0191 17.9933ZM20.4898 17.4575C20.6079 17.5757 20.7026 17.6852 20.7747 17.7746C20.8105 17.819 20.8406 17.8583 20.8642 17.8899C20.8876 17.9211 20.9058 17.9464 20.9159 17.9606C20.9209 17.9676 20.9248 17.9731 20.9261 17.9749C20.9265 17.9755 20.9273 17.9766 20.9268 17.9759C20.9266 17.9756 20.9256 17.9742 20.9243 17.9724C20.922 17.9691 20.9163 17.9611 20.909 17.9509C20.9016 17.9407 20.8908 17.9256 20.8774 17.9076C20.8641 17.8896 20.8467 17.8664 20.826 17.8396C20.8053 17.8128 20.7796 17.7802 20.7494 17.7435C20.7193 17.7069 20.6828 17.6639 20.6404 17.6165C20.598 17.5692 20.5474 17.515 20.4889 17.4565L14.8321 23.1133C14.7736 23.0549 14.7231 23.0007 14.6807 22.9534C14.6383 22.906 14.6019 22.8631 14.5718 22.8265C14.5416 22.7899 14.5159 22.7573 14.4953 22.7305C14.4746 22.7038 14.4572 22.6806 14.4439 22.6626C14.4306 22.6446 14.4198 22.6296 14.4124 22.6194C14.4052 22.6093 14.3995 22.6013 14.3972 22.598C14.3959 22.5963 14.3949 22.5949 14.3948 22.5946C14.3943 22.5939 14.395 22.595 14.3956 22.5957C14.3969 22.5976 14.4008 22.6031 14.4058 22.6102C14.416 22.6244 14.4343 22.6498 14.4577 22.6811C14.4814 22.7128 14.5116 22.7522 14.5474 22.7967C14.6197 22.8863 14.7146 22.996 14.8329 23.1144L20.4898 17.4575ZM20.5062 17.4739L18.1945 15.1337L12.5031 20.7558L14.8148 23.096L20.5062 17.4739ZM18.1845 15.1236C16.561 13.4917 13.9032 13.4544 12.2401 15.0963L17.8605 20.7894C16.3629 22.2679 13.9724 22.2327 12.5132 20.7659L18.1845 15.1236ZM12.2364 15.1C10.586 16.7336 10.5694 19.3941 12.1984 21.0482L17.8985 15.4349C19.3636 16.9227 19.3488 19.3163 17.8643 20.7857L12.2364 15.1ZM12.2025 21.0524L14.5139 23.3927L20.2058 17.7712L17.8944 15.4308L12.2025 21.0524ZM14.516 23.3949C13.2101 22.0745 13.2246 19.9484 14.5439 18.6456L20.1649 24.3381C21.9892 22.5366 22.0088 19.5939 20.2037 17.769L14.516 23.3949ZM14.5427 18.6468C15.8642 17.3407 17.9885 17.3582 19.2896 18.6746L13.5995 24.298C15.3987 26.1186 18.3396 26.142 20.1661 24.3369L14.5427 18.6468ZM19.2902 18.6753L16.4656 15.8158L10.7741 21.4379L13.5988 24.2974L19.2902 18.6753ZM16.4591 15.8093C14.8389 14.1766 12.1698 14.1283 10.5001 15.7895L16.1425 21.4608C14.6383 22.9573 12.2366 22.9116 10.7806 21.4444L16.4591 15.8093ZM10.5111 15.7787C8.85576 17.4129 8.83926 20.0792 10.473 21.7339L16.1659 16.1134C17.6358 17.6022 17.621 20.0012 16.1316 21.4716L10.5111 15.7787ZM10.4738 21.7348L12.9461 24.2375L18.6374 18.6153L16.1651 16.1126L10.4738 21.7348ZM13.9062 17.8987C14.8722 17.3824 15.6971 17.6319 15.8365 17.6838C15.9353 17.7205 15.7873 17.679 15.3638 17.3311C14.532 16.6478 13.5034 15.5192 12.315 14.1277L6.23156 19.323C7.39221 20.6821 8.83802 22.3235 10.2858 23.5128C11.0021 24.1012 11.9451 24.7716 13.0463 25.1814C14.188 25.6063 15.9265 25.8899 17.6773 24.9541L13.9062 17.8987ZM13.0942 17.9088L14.5646 13.1616L6.92275 10.7946L5.45236 15.5419L13.0942 17.9088ZM10.7437 15.9781H12.8157V7.97811H10.7437V15.9781ZM10.161 8.98606C9.28813 9.76051 8.36339 10.8485 7.83144 12.1391L15.2278 15.1877C15.2132 15.2231 15.2009 15.2486 15.193 15.2643C15.185 15.28 15.1801 15.2883 15.1794 15.2895C15.1787 15.2906 15.1895 15.2726 15.2157 15.2384C15.271 15.1664 15.3583 15.0696 15.4705 14.9702L10.161 8.98606ZM7.8316 12.1388C7.46759 13.0217 7.25706 14.0761 7.45385 15.2039C7.65524 16.358 8.22163 17.2345 8.82107 17.8298L14.4582 12.1532C14.8448 12.5372 15.2089 13.1071 15.3348 13.8287C15.4561 14.524 15.297 15.02 15.2277 15.1881L7.8316 12.1388ZM8.8112 17.8199C8.92362 17.9324 9.04386 18.0398 9.17157 18.1411L14.1427 11.8731C14.2582 11.9647 14.3666 12.0616 14.4681 12.1631L8.8112 17.8199ZM9.17201 18.1415C9.88517 18.7069 11.3054 19.6469 13.2709 19.4749C15.1386 19.3114 16.4974 18.2264 17.3879 17.3053L11.6361 11.745C11.2821 12.1113 11.6191 11.5889 12.5733 11.5054C13.6253 11.4133 14.2404 11.9506 14.1423 11.8728L9.17201 18.1415ZM14.2686 18.5178C15.3165 18.5816 16.476 18.406 17.5801 17.7797L13.6327 10.8214C13.8531 10.6964 14.0819 10.6145 14.2978 10.5703C14.5073 10.5274 14.6679 10.5272 14.7554 10.5326L14.2686 18.5178ZM13.3145 17.5788C14.7453 18.5791 16.0867 19.8301 17.3048 21.329L23.5131 16.2836C21.8551 14.2434 19.9745 12.4738 17.8983 11.0223L13.3145 17.5788ZM17.5651 21.6192C16.2598 20.2995 16.2726 18.1725 17.5942 16.8686L23.2128 22.5634C25.0393 20.7613 25.0572 17.8176 23.2528 15.9934L17.5651 21.6192ZM23.2376 15.3C21.6755 13.4931 19.9212 11.9038 18.0036 10.5813L13.4616 17.1669C14.7905 18.0834 16.0429 19.2102 17.1856 20.532L23.2376 15.3ZM18.009 10.585C16.5679 9.58763 14.6625 9.58851 13.2234 10.5803L17.763 17.1675C16.4679 18.06 14.7534 18.0609 13.4563 17.1632L18.009 10.585ZM13.2303 10.5755C13.5395 10.3634 13.8734 10.2283 14.1913 10.1605C14.4944 10.0959 14.7248 10.1045 14.8387 10.1156L14.0603 18.0776C15.1705 18.1862 16.5163 18.0229 17.7562 17.1722L13.2303 10.5755ZM14.8842 10.1203C13.5189 9.97103 12.2321 10.4976 11.364 11.4186L17.1858 16.9055C16.4077 17.7311 15.2488 18.2078 14.0148 18.0729L14.8842 10.1203ZM11.3601 11.4228C11.2106 11.5818 11.2156 11.5444 11.3699 11.4478C11.5423 11.3398 11.9452 11.1317 12.5382 11.0809C13.8271 10.9707 14.6177 11.7099 14.4083 11.5447L9.45104 17.8236C9.82542 18.1192 11.1991 19.2247 13.2199 19.0519C15.0975 18.8913 16.4096 17.7316 17.1898 16.9013L11.3601 11.4228ZM14.8172 11.9161C15.7696 12.9096 15.8265 14.05 15.7958 14.5299C15.7659 14.996 15.6399 15.2958 15.6185 15.3479L8.2215 12.3007C8.08797 12.6248 7.86171 13.2449 7.81214 14.0181C7.76169 14.805 7.87951 16.2393 9.04214 17.4522L14.8172 11.9161ZM15.6184 15.348C15.5776 15.4471 15.5452 15.4991 15.5412 15.5055C15.5358 15.5142 15.5441 15.4999 15.5712 15.4666C15.6293 15.3954 15.7188 15.304 15.8222 15.2209C15.8708 15.1817 15.9124 15.1526 15.9432 15.1331C15.9748 15.113 15.9842 15.1099 15.9685 15.1171C15.9545 15.1235 15.8948 15.1501 15.7905 15.1769C15.6877 15.2034 15.508 15.2388 15.2659 15.2388L15.2645 7.2388C13.2959 7.23914 11.6865 8.28046 10.8075 8.98766C9.85005 9.75792 8.79337 10.9127 8.22158 12.3005L15.6184 15.348ZM15.4183 15.2359C16.6653 15.1881 18.0434 15.4602 18.6804 15.7396L21.893 8.41298C19.9389 7.55611 17.3156 7.15733 15.1122 7.24173L15.4183 15.2359ZM16.4658 13.2597L17.9757 18.1345L25.6175 15.7676L24.1077 10.8928L16.4658 13.2597ZM19.7165 13.5344L18.1315 14.4994L22.2917 21.3326L23.8767 20.3677L19.7165 13.5344ZM24.5778 13.2502H22.3311V21.2502H24.5778V13.2502ZM26.152 16.0666L24.2398 9.89332L16.598 12.2604L18.5102 18.4337L26.152 16.0666ZM21.2985 14.979C22.7544 14.6508 23.8691 14.4859 24.8245 14.4268L24.3307 6.44209C22.835 6.53459 21.2825 6.78183 19.5393 7.17479L21.2985 14.979ZM20.5776 10.4345V17.2502H28.5776V10.4345H20.5776ZM24.5776 21.2502H24.5778V13.2502H24.5776V21.2502Z" fill="white" mask="url(#path-2-inside-1_874_44651)"/>
</svg>
